<?xml version="1.0" encoding="UTF-8"?>
<svg version="1.1" xmlns="http://www.w3.org/2000/svg" width="1280" height="171">
<path d="M0 0 C16.17 0 32.34 0 49 0 C47.01368757 7.28314557 44.96115457 14.21248649 42.3125 21.234375 C41.96872314 22.15663879 41.62494629 23.07890259 41.27075195 24.02911377 C40.55027895 25.95922088 39.82751835 27.88847553 39.10253906 29.81689453 C37.99813976 32.75494883 36.90082174 35.69557214 35.8046875 38.63671875 C35.09936729 40.52359042 34.39365181 42.41031439 33.6875 44.296875 C33.36241455 45.16681091 33.0373291 46.03674683 32.70239258 46.93304443 C32.39197021 47.75790344 32.08154785 48.58276245 31.76171875 49.43261719 C31.358927 50.50536896 31.358927 50.50536896 30.94799805 51.59979248 C29.69954432 54.76071463 28.33875 57.87625001 27 61 C54.225 60.505 54.225 60.505 82 60 C84.8875 52.141875 87.775 44.28375 90.75 36.1875 C91.65331055 33.72949951 92.55662109 31.27149902 93.48730469 28.73901367 C94.21550925 26.75700401 94.94370023 24.77498936 95.671875 22.79296875 C96.22415771 21.29038513 96.22415771 21.29038513 96.78759766 19.75744629 C97.33504639 18.26718933 97.33504639 18.26718933 97.89355469 16.74682617 C98.20444031 15.90077316 98.51532593 15.05472015 98.83563232 14.18302917 C100.56410301 9.45791293 102.28057608 4.72841578 104 0 C120.17 0 136.34 0 153 0 C150.99768151 6.67439498 148.92803777 13.21160612 146.55078125 19.74609375 C146.05677071 21.11340134 146.05677071 21.11340134 145.55278015 22.5083313 C144.47574546 25.48583909 143.39436616 28.4617446 142.3125 31.4375 C141.54882436 33.54353705 140.78515255 35.64957548 140.02148438 37.75561523 C134.44043906 53.12635224 128.77585617 68.46523997 123.04907227 83.78222656 C122.3920413 85.53969539 121.73505915 87.29718248 121.078125 89.0546875 C120.58807228 90.36572449 120.58807228 90.36572449 120.08811951 91.70324707 C117.48750763 98.67088093 114.91974993 105.65030601 112.359375 112.6328125 C111.58208871 114.74928868 110.80474544 116.86574394 110.02734375 118.98217773 C108.8991729 122.05381226 107.77246225 125.12593526 106.65087891 128.19998169 C105.62033639 131.02417545 104.58413217 133.84623551 103.546875 136.66796875 C103.2465033 137.49624176 102.94613159 138.32451477 102.63665771 139.17788696 C97.08079189 154.23362133 97.08079189 154.23362133 90 158 C87.26893489 158.91035504 85.70106761 159.12215713 82.89575195 159.11352539 C81.6648156 159.11341209 81.6648156 159.11341209 80.40901184 159.11329651 C79.52767075 159.10813522 78.64632965 159.10297394 77.73828125 159.09765625 C76.83248825 159.0962413 75.92669525 159.09482635 74.99345398 159.09336853 C72.09976909 159.08777001 69.20616151 159.07521781 66.3125 159.0625 C64.35091258 159.05748481 62.38932394 159.05292193 60.42773438 159.04882812 C55.61845979 159.03780107 50.809243 159.02053747 46 159 C48.15893125 151.3930097 50.75885253 144.00203305 53.52734375 136.59765625 C53.95753311 135.43930771 54.38772247 134.28095917 54.83094788 133.08750916 C56.19686402 129.41140684 57.56704827 125.73691355 58.9375 122.0625 C60.30341937 118.39130487 61.66846281 114.71978504 63.03334045 111.04820251 C63.87956208 108.77280396 64.7265488 106.49768974 65.57444763 104.22291565 C65.96487747 103.1749028 66.35530731 102.12688995 66.75756836 101.04711914 C67.09493515 100.14240372 67.43230194 99.23768829 67.77989197 98.30555725 C69.53759751 93.54352294 71.26528785 88.7704584 73 84 C55.18 84 37.36 84 19 84 C16.97359375 89.48173828 16.97359375 89.48173828 14.90625 95.07421875 C13.5692546 98.6888111 12.23190873 102.30327361 10.89453125 105.91772461 C9.97868943 108.39313476 9.06342636 110.86875661 8.1484375 113.34448242 C6.81868296 116.94225582 5.48757576 120.53952652 4.15625 124.13671875 C3.7600647 125.20951584 3.36387939 126.28231293 2.95568848 127.38761902 C-0.95758253 137.95389431 -4.98809427 148.46874745 -9 159 C-25.17 159 -41.34 159 -58 159 C-54.6254638 147.75154601 -54.6254638 147.75154601 -53.20092773 143.96069336 C-52.87814346 143.09659851 -52.55535919 142.23250366 -52.22279358 141.34222412 C-51.70838966 139.97979584 -51.70838966 139.97979584 -51.18359375 138.58984375 C-50.81523911 137.60574524 -50.44688446 136.62164673 -50.06736755 135.60772705 C-49.2741862 133.48931176 -48.47961457 131.37141659 -47.68377686 129.2539978 C-45.53332788 123.53138548 -43.3940735 117.80458875 -41.25390625 112.078125 C-40.81445679 110.90295822 -40.37500732 109.72779144 -39.92224121 108.51701355 C-35.52809714 96.75700322 -31.19509433 84.97487594 -26.875 73.1875 C-25.4051785 69.17830084 -23.93513682 65.1691825 -22.46484375 61.16015625 C-22.1024057 60.17183304 -21.73996765 59.18350983 -21.36654663 58.16523743 C-16.34346887 44.47544706 -11.27954495 30.80070997 -6.21630859 17.12573242 C-5.87212387 16.19563858 -5.52793915 15.26554474 -5.17332458 14.30726624 C-4.53122859 12.57219243 -3.88872577 10.83726911 -3.2457428 9.1025238 C-2.96282883 8.33795364 -2.67991486 7.57338348 -2.38842773 6.78564453 C-2.14293686 6.12291534 -1.89744598 5.46018616 -1.64451599 4.77737427 C-1.07038184 3.1940912 -0.53258007 1.59774021 0 0 Z " fill="#D7171F" transform="translate(62,6)"/>
<path d="M0 0 C0.85049423 0.00222061 1.70098846 0.00444122 2.57725525 0.00672913 C4.01863609 0.00684242 4.01863609 0.00684242 5.48913574 0.00695801 C7.05630592 0.01469994 7.05630592 0.01469994 8.65513611 0.02259827 C9.71913132 0.02401321 10.78312653 0.02542816 11.87936401 0.02688599 C15.29293069 0.03250388 18.70643286 0.04505941 22.11997986 0.05775452 C24.42792162 0.06276721 26.73586441 0.06733052 29.04380798 0.07142639 C34.71505412 0.08247912 40.38626238 0.09923465 46.05747986 0.12025452 C44.68515377 7.05329558 42.63236713 13.45435502 40.14341736 20.06166077 C39.76891449 21.06994431 39.39441162 22.07822784 39.00856018 23.11706543 C37.82204033 26.30771213 36.62740372 29.49524695 35.43247986 32.68275452 C34.62204388 34.85768353 33.81214261 37.03281187 33.00279236 39.20814514 C31.02719927 44.51450237 29.0449498 49.81833507 27.05747986 55.12025452 C30.06715959 53.65518302 32.65294009 52.04645277 35.33091736 50.03041077 C36.55717834 49.10977844 36.55717834 49.10977844 37.80821228 48.17054749 C39.10722473 47.18658997 39.10722473 47.18658997 40.43247986 46.18275452 C41.33007019 45.50615784 42.22766052 44.82956116 43.15245056 44.13246155 C48.7819498 39.87722686 54.36480632 35.56842079 59.89659119 31.18714905 C66.53838562 25.93007401 73.28562463 20.81132145 80.02085876 15.67494202 C83.12093894 13.30844591 86.21528158 10.93453648 89.30747986 8.55775452 C90.30263611 7.79334045 91.29779236 7.02892639 92.32310486 6.24134827 C95.04219772 4.21907873 95.04219772 4.21907873 97.19200134 2.01210022 C100.9907968 -0.49593983 104.24611493 -0.38613255 108.63951111 -0.27037048 C109.8607795 -0.2618808 109.8607795 -0.2618808 111.10671997 -0.2532196 C113.69508338 -0.23091322 116.28203826 -0.18072993 118.86997986 -0.12974548 C120.62972542 -0.10967296 122.38949279 -0.0914235 124.14927673 -0.07505798 C128.45254991 -0.03106755 132.75477646 0.03791825 137.05747986 0.12025452 C137.05747986 0.78025452 137.05747986 1.44025452 137.05747986 2.12025452 C134.8023465 3.95139823 132.53395261 5.66995043 130.18247986 7.37025452 C128.70350956 8.45859729 127.22568692 9.54850098 125.74888611 10.63978577 C124.97560974 11.21035706 124.20233337 11.78092834 123.40562439 12.36878967 C119.59914344 15.20801762 115.85979795 18.13159679 112.11997986 21.05775452 C104.18654092 27.25242751 96.2051655 33.3814097 88.20152283 39.48500061 C84.48511477 42.31949175 80.77098358 45.15695982 77.05747986 47.99525452 C75.9930365 48.80881409 75.9930365 48.80881409 74.90708923 49.6388092 C69.93716118 53.44031046 64.98296458 57.26125651 60.05747986 61.12025452 C61.72673149 66.858307 64.36611588 71.99933792 67.05747986 77.30775452 C67.79985901 78.7817572 67.79985901 78.7817572 68.55723572 80.28553772 C71.89855241 86.89607942 75.31391285 93.46428382 78.78721619 100.00624084 C84.14266826 110.11749179 89.3364019 120.31301101 94.5499115 130.49794006 C95.29577035 131.95285276 96.04178025 133.40768803 96.78794861 134.86244202 C97.14802505 135.56579178 97.5081015 136.26914154 97.87908936 136.99380493 C99.60128495 140.344493 101.34858944 143.67622658 103.16539001 146.97669983 C103.65801079 147.87341904 103.65801079 147.87341904 104.1605835 148.78825378 C105.04621724 150.39079926 105.94079969 151.98839019 106.83604431 153.58558655 C108.05747986 156.12025452 108.05747986 156.12025452 108.05747986 159.12025452 C101.93773568 159.21955141 95.81846634 159.29192548 89.69810486 159.33998108 C87.61859461 159.36002611 85.53914023 159.38726965 83.45982361 159.42201233 C80.46098498 159.47084399 77.46289523 159.49329479 74.46372986 159.51087952 C73.54257385 159.53152466 72.62141785 159.5521698 71.67234802 159.57344055 C65.61867559 159.57551819 61.08021318 158.61720982 56.05747986 155.12025452 C54.18345642 153.19593811 54.18345642 153.19593811 52.94810486 151.14369202 C52.4705072 150.3544635 51.99290955 149.56523499 51.50083923 148.75209045 C48.79406401 143.8165294 46.2706381 138.80625158 43.80747986 133.74525452 C42.66847778 131.43455799 41.52783836 129.12466788 40.38560486 126.81556702 C39.8255072 125.68280334 39.26540955 124.55003967 38.68833923 123.38294983 C36.37750752 118.75990268 33.98123549 114.18488591 31.55747986 109.62025452 C28.30578277 103.49413975 25.1017882 97.35307528 22.05747986 91.12025452 C20.98497986 91.71837952 19.91247986 92.31650452 18.80747986 92.93275452 C18.20419861 93.26919983 17.60091736 93.60564514 16.97935486 93.95228577 C12.87949341 96.44386823 10.67865979 98.15677244 9.03038025 102.76844788 C8.51448082 104.18153481 8.51448082 104.18153481 7.98815918 105.62316895 C7.45206276 107.15119896 7.45206276 107.15119896 6.90513611 108.71009827 C6.33212013 110.29245018 6.33212013 110.29245018 5.74752808 111.9067688 C4.52623104 115.28621261 3.32250052 118.67158917 2.11997986 122.05775452 C0.91765897 125.41047766 -0.28831533 128.76184952 -1.49685669 132.11233521 C-2.24703159 134.19559325 -2.99311693 136.28033048 -3.73425293 138.36682129 C-6.253227 145.40970891 -9.05606164 152.19275411 -11.94252014 159.12025452 C-27.78252014 159.12025452 -43.62252014 159.12025452 -59.94252014 159.12025452 C-57.69260866 148.99565283 -57.69260866 148.99565283 -56.14930725 144.87147522 C-55.63020531 143.47078293 -55.63020531 143.47078293 -55.10061646 142.04179382 C-54.54089394 140.55889359 -54.54089394 140.55889359 -53.96986389 139.04603577 C-53.3778141 137.45557938 -53.3778141 137.45557938 -52.77380371 135.83299255 C-51.48124462 132.36421636 -50.18057611 128.8985394 -48.88002014 125.43275452 C-47.97068786 122.99590047 -47.06200486 120.55880405 -46.15394592 118.12147522 C-44.30479829 113.15955081 -42.45304867 108.19861028 -40.59925842 103.23841858 C-37.15831031 94.02615135 -33.74641505 84.80322316 -30.34049988 75.57795715 C-29.31930894 72.81259854 -28.29692635 70.04768294 -27.27430725 67.28285217 C-23.47105527 56.99568878 -19.68763428 46.70143118 -15.91908264 36.40150452 C-15.08007573 34.11023631 -14.24104601 31.81897647 -13.4019928 29.52772522 C-11.78651529 25.11595336 -10.17478432 20.70283632 -8.56507874 16.28895569 C-7.83685633 14.29908047 -7.10851018 12.30925052 -6.38002014 10.31947327 C-5.87820724 8.93876648 -5.87820724 8.93876648 -5.36625671 7.53016663 C-5.06013458 6.69582092 -4.75401245 5.86147522 -4.43861389 5.00184631 C-4.17234192 4.27233261 -3.90606995 3.54281891 -3.63172913 2.79119873 C-2.68734482 0.50159786 -2.51984585 0.1559947 0 0 Z " fill="#D7171F" transform="translate(325.94252014160156,5.8797454833984375)"/>
<path d="M0 0 C3.2035609 0.02154642 6.40490299 0.00004171 9.60839844 -0.02539062 C24.42502362 -0.04630517 36.78247213 0.63866716 47.94433594 11.52148438 C56.52931691 20.83891412 60.46490039 30.70747926 60.35058594 43.35351562 C57.99415287 77.32823101 38.91275824 119.08632101 14.19433594 142.14648438 C6.51218797 148.57347825 -1.9150181 153.36078043 -11.24316406 156.89648438 C-11.87158203 157.1350415 -12.5 157.37359863 -13.14746094 157.61938477 C-22.09810551 160.82083688 -30.89765972 161.83604679 -40.36425781 161.85742188 C-41.93531029 161.86740707 -41.93531029 161.86740707 -43.5381012 161.87759399 C-45.73900615 161.88765666 -47.93994121 161.89241301 -50.14086914 161.89208984 C-53.48082279 161.8964682 -56.81945856 161.93287179 -60.15917969 161.97070312 C-62.31086794 161.97657185 -64.46256238 161.98054087 -66.61425781 161.98242188 C-67.59792831 161.99679291 -68.58159882 162.01116394 -69.59507751 162.02597046 C-81.9823589 161.94555963 -90.90899986 157.27744256 -99.77050781 148.90039062 C-107.58008756 140.61388998 -110.5542845 130.06635666 -110.46191406 118.94726562 C-108.37917415 86.73174213 -89.87129618 43.99656756 -66.69238281 21.74804688 C-46.98984212 5.11034585 -25.32217133 -0.20263972 0 0 Z M-32.36090088 33.1693573 C-37.62349585 40.47320496 -40.36056663 49.72046303 -43.38378906 58.12695312 C-43.77709412 59.20866287 -44.17039917 60.29037262 -44.57562256 61.40486145 C-45.82312297 64.8380792 -47.06469346 68.27340162 -48.30566406 71.70898438 C-49.52834461 75.08363131 -50.75232546 78.45780107 -51.97741699 81.83157349 C-52.78853513 84.06612881 -53.59819247 86.30121493 -54.40637207 88.53683472 C-56.43472448 94.13260898 -58.49920855 99.71066144 -60.63574219 105.26611328 C-61.04999451 106.34806473 -61.46424683 107.43001617 -61.89105225 108.54475403 C-62.6741459 110.58250781 -63.46454716 112.617475 -64.26373291 114.64897156 C-66.79846698 121.25426148 -69.07081117 127.19405775 -66.93066406 134.20898438 C-64.24323468 138.95677629 -61.16844272 142.47456946 -56.05566406 144.52148438 C-45.58813213 145.77177291 -35.43670184 143.89039751 -26.74316406 137.77148438 C-14.98076392 127.98575313 -10.82663207 115.31559949 -5.74707031 101.26367188 C-5.25328256 99.90751325 -4.75912885 98.55148782 -4.26463318 97.19558716 C-2.97254473 93.64936685 -1.68581705 90.10122453 -0.40014648 86.55267334 C0.89138863 82.99147596 2.18871003 79.43238743 3.48535156 75.87304688 C4.98401641 71.7588916 6.48010145 67.6438756 7.96395874 63.52435303 C8.19848063 62.87329716 8.43300251 62.22224129 8.67463112 61.55145645 C8.90398039 60.91475903 9.13332966 60.2780616 9.36962891 59.62207031 C10.88955851 55.4072749 12.43433583 51.20585977 14.03857422 47.02246094 C14.33176041 46.24250763 14.62494659 45.46255432 14.92701721 44.65896606 C15.6518878 42.73524929 16.39297772 40.81766314 17.13598633 38.90087891 C18.27363246 34.14482401 17.98277862 29.85901472 15.96386719 25.31445312 C13.04765601 21.43560913 10.73014502 18.97431928 5.94433594 17.52148438 C-9.66664633 15.8106918 -22.4493967 21.15859991 -32.36090088 33.1693573 Z " fill="#6B6D70" transform="translate(1005.0556640625,4.478515625)"/>
<path d="M0 0 C1.25159912 0.00523682 2.50319824 0.01047363 3.79272461 0.01586914 C4.78942421 0.01799156 4.78942421 0.01799156 5.80625916 0.02015686 C7.93590735 0.02577021 10.06545175 0.03832485 12.19506836 0.05102539 C13.63582205 0.05603868 15.07657739 0.06060188 16.51733398 0.06469727 C20.05577938 0.07574394 23.59416375 0.09301747 27.13256836 0.11352539 C30.86587022 8.05202964 34.13824048 16.10432374 37.25756836 24.30102539 C38.30004526 27.02227211 39.34649609 29.74197703 40.39428711 32.46118164 C40.67818802 33.19810242 40.96208893 33.93502319 41.2545929 34.6942749 C46.26076 47.65611137 51.41847666 60.55913906 56.54516602 73.47363281 C60.45829463 83.33464318 64.36345995 93.19631856 68.13256836 103.11352539 C69.75990545 100.67251975 70.7085355 98.86401123 71.71044922 96.17602539 C72.01002533 95.37805038 72.30960144 94.58007538 72.61825562 93.75791931 C72.94137726 92.88526932 73.2644989 92.01261932 73.59741211 91.11352539 C73.94293121 90.18967545 74.28845032 89.2658255 74.6444397 88.3139801 C75.78990044 85.24848676 76.92991758 82.18099718 78.07006836 79.11352539 C78.86584982 76.98179875 79.66199791 74.85020894 80.45849609 72.71875 C84.37657613 62.22697476 88.2765728 51.72848367 92.17436218 41.22915649 C93.92367234 36.5177926 95.67456717 31.80701805 97.42532349 27.09619141 C98.68621492 23.69987288 99.94358632 20.30226542 101.20068359 16.90454102 C101.97083147 14.82962824 102.74108924 12.75475625 103.51147461 10.67993164 C104.04147568 9.24273521 104.04147568 9.24273521 104.58218384 7.77650452 C104.90504364 6.908759 105.22790344 6.04101349 105.56054688 5.14697266 C105.84156754 4.38796158 106.1225882 3.6289505 106.41212463 2.84693909 C107.13256836 1.11352539 107.13256836 1.11352539 108.13256836 0.11352539 C109.91328082 0.02626316 111.69739976 0.00653498 113.48022461 0.01586914 C114.55981445 0.0190918 115.6394043 0.02231445 116.75170898 0.02563477 C118.45617188 0.03820312 118.45617188 0.03820312 120.19506836 0.05102539 C121.90533203 0.05779297 121.90533203 0.05779297 123.65014648 0.06469727 C126.4776744 0.07652793 129.30508732 0.09384921 132.13256836 0.11352539 C130.20762336 6.81593115 128.01722182 13.35232733 125.53491211 19.86743164 C125.18875351 20.78494202 124.84259491 21.70245239 124.48594666 22.64776611 C123.73984772 24.62495154 122.99235457 26.60161132 122.24359131 28.57778931 C120.2102506 33.94604354 118.18888308 39.31879991 116.16772461 44.69165039 C115.74978638 45.80228348 115.33184814 46.91291656 114.90124512 48.0572052 C110.54185809 59.65763731 106.26933886 71.2894529 102.00756836 82.92602539 C96.46229747 98.05468595 90.91026815 113.18070994 85.30548096 128.28744507 C84.61640155 130.14580021 83.92834289 132.00453421 83.24139404 133.86367798 C82.29391383 136.42719742 81.34266057 138.98928562 80.39038086 141.55102539 C79.98218109 142.65863472 79.98218109 142.65863472 79.56573486 143.78862 C77.62427111 148.99254231 75.43678305 154.06032405 73.13256836 159.11352539 C69.29949667 159.23071714 65.46689228 159.30110616 61.63256836 159.36352539 C60.55491211 159.39704102 59.47725586 159.43055664 58.36694336 159.46508789 C51.84602839 159.54461124 46.26221831 159.48685551 41.13256836 155.11352539 C36.5513324 147.95108684 33.89623595 139.53271595 30.99975586 131.59399414 C30.518129 130.28750502 30.03594804 128.98122004 29.55325317 127.67512512 C28.28668276 124.2440359 27.02672883 120.81055707 25.76849365 117.37640381 C23.78642923 111.97044115 21.79387332 106.56832794 19.80261993 101.16574478 C19.3100272 99.82891294 18.81769115 98.4919865 18.32561493 97.15496445 C13.03048612 82.76876154 7.60013413 68.43498027 2.13256836 54.11352539 C-11.19170551 88.99244283 -24.04336094 124.04813984 -36.86743164 159.11352539 C-45.11743164 159.11352539 -53.36743164 159.11352539 -61.86743164 159.11352539 C-56.86289741 144.70493867 -51.70335392 130.3630983 -46.42993164 116.05102539 C-45.63700727 113.89568419 -44.84412063 111.7403291 -44.05126953 109.58496094 C-38.36047062 94.12417883 -32.63015789 78.67824025 -26.87133789 63.24267578 C-23.26858749 53.58348413 -19.68536209 43.91742657 -16.12524414 34.24243164 C-15.53468987 32.6388253 -15.53468987 32.6388253 -14.9322052 31.00282288 C-13.01346168 25.79259618 -11.09726667 20.58146027 -9.18554688 15.36865234 C-8.49760735 13.49970795 -7.80954437 11.630809 -7.12133789 9.76196289 C-6.6475621 8.46537498 -6.6475621 8.46537498 -6.16421509 7.14259338 C-3.58047354 0.14175566 -3.58047354 0.14175566 0 0 Z " fill="#6B6D70" transform="translate(1108.867431640625,5.886474609375)"/>
<path d="M0 0 C15.18 0 30.36 0 46 0 C46.56589844 7.32832031 47.13179687 14.65664063 47.71484375 22.20703125 C48.07445139 26.8418302 48.43428232 31.47660963 48.79492188 36.11132812 C49.36767247 43.47224428 49.93958272 50.83321914 50.5065918 58.19458008 C50.96363344 64.12758218 51.42435755 70.06028773 51.8876667 75.99280357 C52.06402093 78.25937358 52.23903442 80.5260483 52.41270256 82.7928257 C52.65564933 85.96088338 52.90330477 89.12853957 53.15209961 92.29614258 C53.22331024 93.23913208 53.29452087 94.18212158 53.3678894 95.15368652 C53.4365773 96.01605423 53.5052652 96.87842194 53.57603455 97.766922 C53.6341075 98.51633969 53.69218046 99.26575739 53.75201321 100.03788471 C53.96185109 102.21018089 53.96185109 102.21018089 55 105 C55.4237793 104.36143066 55.84755859 103.72286133 56.28417969 103.06494141 C60.54451278 96.65901376 64.83373963 90.2731602 69.140625 83.8984375 C69.70156357 83.06808487 70.26250214 82.23773224 70.84043884 81.38221741 C72.02705615 79.62577784 73.21369721 77.86935432 74.40036011 76.11294556 C82.94030547 63.47161707 91.46755806 50.82251387 99.91796875 38.12109375 C100.55394989 37.16535461 101.18993103 36.20961548 101.84518433 35.22491455 C104.89633861 30.63795423 107.94396917 26.04869427 110.98730469 21.45654297 C112.09435795 19.79001043 113.20145214 18.12350509 114.30859375 16.45703125 C115.04277779 15.34563026 115.04277779 15.34563026 115.79179382 14.21177673 C116.71914122 12.81744515 117.65532505 11.42894049 118.60125732 10.04714966 C119.57560442 8.62113016 120.52651101 7.17893052 121.45880127 5.72506714 C125.16928089 0.23877879 125.16928089 0.23877879 129.15966797 -0.90820312 C130.25939941 -0.86630859 131.35913086 -0.82441406 132.4921875 -0.78125 C134.29042969 -0.74257812 134.29042969 -0.74257812 136.125 -0.703125 C137.3625 -0.63609375 138.6 -0.5690625 139.875 -0.5 C141.13570312 -0.46390625 142.39640625 -0.4278125 143.6953125 -0.390625 C146.79999216 -0.2965438 149.89842636 -0.16521392 153 0 C151.63783156 3.75257872 149.92871452 6.81667678 147.66796875 10.1015625 C146.96631592 11.12757568 146.26466309 12.15358887 145.54174805 13.21069336 C145.16061859 13.76336884 144.77948914 14.31604431 144.3868103 14.88546753 C142.71539995 17.3097547 141.05511322 19.74158849 139.39411926 22.17301941 C138.46898949 23.52721168 137.54334317 24.88105119 136.61723328 26.23457336 C130.72963008 34.84432757 124.90139182 43.49415668 119.07144165 52.14300537 C117.24210324 54.85650574 115.41156458 57.56919288 113.58081055 60.28173828 C107.71018187 68.98401125 101.85973116 77.69912013 96.04296875 86.4375 C88.78303115 97.34365946 81.45818898 108.20550863 74.125 119.0625 C72.23690176 121.85850571 70.34898819 124.65463541 68.46156311 127.45109558 C67.2585772 129.2331657 66.05501057 131.01484398 64.85081482 132.7960968 C62.37150735 136.46673026 59.89834803 140.13993598 57.47290039 143.84643555 C56.77414795 144.91289307 56.07539551 145.97935059 55.35546875 147.078125 C54.78465576 147.96016602 54.21384277 148.84220703 53.62573242 149.75097656 C50.55431436 153.99994836 47.04263671 157.3191211 42 159 C39.7161483 159.08378628 37.429899 159.10729915 35.14453125 159.09765625 C34.48289474 159.0962413 33.82125824 159.09482635 33.13957214 159.09336853 C31.03050172 159.08777996 28.92153823 159.07522965 26.8125 159.0625 C25.38086091 159.05748352 23.94922015 159.05292087 22.51757812 159.04882812 C19.01168412 159.0378143 15.5058525 159.02055755 12 159 C9.56607639 128.96895167 7.13776214 98.93745436 4.71780396 68.90527725 C4.28142015 63.48992329 3.84458296 58.07460647 3.40698624 52.6593504 C2.85008436 45.76739953 2.29618791 38.87521885 1.7479248 31.98257446 C1.58421135 29.9305339 1.41927769 27.87859028 1.25305176 25.82675171 C1.02992422 23.06965212 0.81118064 20.31224132 0.59375 17.5546875 C0.53165344 16.79987595 0.46955688 16.04506439 0.40557861 15.26737976 C0.0078126 10.13111043 0 5.19102558 0 0 Z " fill="#6B6D70" transform="translate(477,6)"/>
<path d="M0 0 C1.9586879 0.00373561 3.91737767 0.00657999 5.87606812 0.00857544 C11.00194566 0.01616875 16.12770774 0.03577979 21.25354004 0.0579834 C26.49583373 0.07853503 31.73814629 0.08759699 36.98046875 0.09765625 C47.24484207 0.11903016 57.50913014 0.15311351 67.7734375 0.1953125 C66.82252554 3.1352675 65.86143315 6.07179553 64.8984375 9.0078125 C64.62902344 9.84119141 64.35960937 10.67457031 64.08203125 11.53320312 C63.68564453 12.73686523 63.68564453 12.73686523 63.28125 13.96484375 C63.04035645 14.70323486 62.79946289 15.44162598 62.55126953 16.20239258 C61.7734375 18.1953125 61.7734375 18.1953125 59.7734375 21.1953125 C56.94706726 21.57385254 56.94706726 21.57385254 53.29174805 21.58007812 C52.29386261 21.58813728 52.29386261 21.58813728 51.27581787 21.59635925 C49.8293365 21.60615211 48.38279628 21.60907684 46.93628502 21.60600281 C44.64512921 21.60153319 42.35474939 21.61550095 40.06367493 21.63439941 C35.19610864 21.6712394 30.32862267 21.68489355 25.4609375 21.6953125 C19.83061185 21.70739236 14.20066214 21.72898652 8.57050514 21.77531433 C6.3164401 21.7888743 4.06285136 21.7847147 1.8087616 21.77990723 C0.42027179 21.78925141 -0.96821278 21.79942113 -2.35668945 21.81054688 C-3.56533157 21.81260132 -4.77397369 21.81465576 -6.01924133 21.81677246 C-10.90559789 22.39347854 -13.3739424 24.20442968 -16.5390625 27.8828125 C-18.58919422 31.90714513 -19.44963417 34.85078185 -18.2265625 39.1953125 C-13.06812358 48.27362058 -5.38562769 56.79057226 2.5859375 63.5078125 C15.00727182 74.06594668 28.20993731 88.54454026 30.7734375 105.1953125 C31.77743982 120.22242916 29.15289711 132.02320064 19.7734375 144.1953125 C11.86855102 153.07337075 0.2488166 158.46677949 -11.56186104 159.37486649 C-14.03319721 159.43887184 -16.49692245 159.44313003 -18.96899414 159.42236328 C-19.89689758 159.42265533 -20.82480103 159.42294739 -21.78082275 159.42324829 C-24.81622002 159.42186649 -27.85136492 159.40635988 -30.88671875 159.390625 C-33.00377773 159.38689078 -35.12083845 159.38404574 -37.23789978 159.38204956 C-42.78629399 159.37444534 -48.33458205 159.35482462 -53.88293457 159.3326416 C-59.55410323 159.31211377 -65.2252892 159.30303305 -70.89648438 159.29296875 C-82.00655683 159.27157554 -93.11655081 159.23747864 -104.2265625 159.1953125 C-103.5045466 154.5125119 -102.34678996 150.34314797 -100.7265625 145.8828125 C-100.283125 144.64917969 -99.8396875 143.41554687 -99.3828125 142.14453125 C-98.2265625 139.1953125 -98.2265625 139.1953125 -97.2265625 138.1953125 C-94.95798524 138.0922155 -92.6861937 138.05957175 -90.4152832 138.0534668 C-89.34687447 138.04825516 -89.34687447 138.04825516 -88.25688171 138.04293823 C-86.70450438 138.0355678 -85.15211642 138.03022931 -83.59972572 138.02664757 C-81.14054904 138.01949695 -78.68157364 138.00383946 -76.22245789 137.98530579 C-69.22849354 137.9327821 -62.23463565 137.88488822 -55.24047852 137.86938477 C-50.9662049 137.8592877 -46.69243165 137.82991443 -42.41835594 137.78806496 C-40.79056781 137.77576873 -39.16270892 137.77063119 -37.53487587 137.77286339 C-35.25098219 137.77522358 -32.96851495 137.75299634 -30.68481445 137.7253418 C-29.38655228 137.71947556 -28.0882901 137.71360931 -26.75068665 137.70756531 C-21.7212814 136.97651077 -18.57777573 134.81676838 -15.3515625 130.9453125 C-13.80159674 127.15650732 -13.32250362 124.15821722 -14.2265625 120.1953125 C-19.69220089 108.24761877 -30.41952171 97.89594005 -39.67333984 88.74462891 C-42.7084177 85.71718406 -45.47882862 82.48243986 -48.2265625 79.1953125 C-48.75378906 78.56882812 -49.28101563 77.94234375 -49.82421875 77.296875 C-59.62151928 65.01892805 -61.3966957 52.40385572 -60.2265625 37.1953125 C-58.0325574 25.63603992 -51.39797875 15.5047466 -42.2265625 8.1953125 C-28.64392967 -0.26569221 -15.470024 -0.08697847 0 0 Z " fill="#6B6D70" transform="translate(767.2265625,5.8046875)"/>
<path d="M0 0 C16.17 0 32.34 0 49 0 C40.94534072 23.01331224 40.94534072 23.01331224 37.7578125 31.7109375 C37.20953293 33.21193497 37.20953293 33.21193497 36.650177 34.74325562 C35.47663941 37.95439593 34.30097057 41.16474996 33.125 44.375 C32.28872542 46.66047754 31.45246262 48.94595939 30.61621094 51.23144531 C22.46179215 73.50647461 14.2627622 95.7649282 6 118 C5.64301025 118.96077454 5.28602051 119.92154907 4.91821289 120.91143799 C2.78508354 126.65019268 0.64773368 132.38735015 -1.49523926 138.12243652 C-2.16040111 139.90328595 -2.82472002 141.68445047 -3.48815918 143.46594238 C-4.39562913 145.90150229 -5.30663636 148.33570728 -6.21875 150.76953125 C-6.48766052 151.49310318 -6.75657104 152.21667511 -7.03363037 152.96217346 C-8.88550088 157.88550088 -8.88550088 157.88550088 -10 159 C-11.50418739 159.09311889 -13.01271356 159.11746028 -14.51977539 159.11352539 C-15.96115623 159.11341209 -15.96115623 159.11341209 -17.43165588 159.11329651 C-18.476436 159.10813522 -19.52121613 159.10297394 -20.59765625 159.09765625 C-22.19364906 159.09553383 -22.19364906 159.09553383 -23.82188416 159.09336853 C-27.23545083 159.08775064 -30.648953 159.07519511 -34.0625 159.0625 C-36.37044176 159.05748731 -38.67838455 159.052924 -40.98632812 159.04882812 C-46.65757426 159.0377754 -52.32878253 159.02101987 -58 159 C-57.39499782 155.66094725 -56.58072853 152.5730966 -55.41210938 149.38891602 C-55.08598663 148.49486557 -54.75986389 147.60081512 -54.42385864 146.67967224 C-54.06742279 145.71416946 -53.71098694 144.74866669 -53.34375 143.75390625 C-52.96983124 142.73228897 -52.59591248 141.71067169 -52.21066284 140.65809631 C-50.97737297 137.29156582 -49.73876813 133.92701814 -48.5 130.5625 C-47.63467234 128.20435826 -46.76960396 125.84612137 -45.90478516 123.48779297 C-43.27570054 116.32303982 -40.6390523 109.16108686 -38 102 C-37.42010315 100.42620575 -37.42010315 100.42620575 -36.82849121 98.82061768 C-32.6272755 87.42121511 -28.41439279 76.02615573 -24.19483948 64.63352966 C-21.55733267 57.51055509 -18.92798303 50.38459354 -16.30078125 43.2578125 C-15.13829385 40.10598489 -13.97569146 36.95419973 -12.81304932 33.8024292 C-12.07264727 31.79449867 -11.33268534 29.78640578 -10.59320068 27.77813721 C-9.56728811 24.99225445 -8.53967511 22.20700416 -7.51171875 19.421875 C-7.21453445 18.61348175 -6.91735016 17.8050885 -6.61116028 16.97219849 C-4.50360604 11.26892427 -2.26028067 5.65070168 0 0 Z " fill="#D7171F" transform="translate(244,6)"/>
<path d="M0 0 C15.18 0 30.36 0 46 0 C44.64579803 6.09390886 43.2435825 11.53237902 41.04296875 17.28125 C40.74812592 18.06695877 40.45328308 18.85266754 40.14950562 19.66218567 C39.50664528 21.37355275 38.86110152 23.08391372 38.21316528 24.79336548 C36.40315196 29.56982094 34.61383357 34.35405208 32.8203125 39.13671875 C32.43494827 40.16250534 32.04958405 41.18829193 31.65254211 42.24516296 C27.3499788 53.70662884 23.12215327 65.19544234 18.89654541 76.68545532 C17.56326951 80.31040782 16.22885347 83.9349385 14.89404297 87.55932617 C11.40764358 97.02596492 7.92202276 106.49288912 4.43945312 115.9609375 C2.43852216 121.40051151 0.4353786 126.83926587 -1.56936646 132.2774353 C-2.30888686 134.28479149 -3.04756853 136.29245689 -3.78536987 138.30044556 C-4.79621222 141.0513391 -5.80986832 143.80117971 -6.82421875 146.55078125 C-7.11903137 147.35523682 -7.41384399 148.15969238 -7.71759033 148.98852539 C-7.99085144 149.72748047 -8.26411255 150.46643555 -8.5456543 151.2277832 C-8.77987595 151.86416214 -9.0140976 152.50054108 -9.25541687 153.15620422 C-10.06126309 155.15170451 -11.0375646 157.0751292 -12 159 C-27.18 159 -42.36 159 -58 159 C-51.11013354 138.33040062 -51.11013354 138.33040062 -47.63671875 129.046875 C-47.24754272 127.99894272 -46.8583667 126.95101044 -46.45739746 125.87132263 C-45.20346357 122.49653778 -43.94545689 119.12328705 -42.6875 115.75 C-41.79889255 113.3599092 -40.9106333 110.96968892 -40.02270508 108.5793457 C-38.21811949 103.72189849 -36.41229243 98.86491592 -34.60546875 94.00830078 C-30.78637035 83.73954868 -26.98521372 73.46417645 -23.1875 63.1875 C-22.84561646 62.26269836 -22.50373291 61.33789673 -22.15148926 60.3850708 C-14.71805779 40.27478712 -7.35568346 20.13886151 0 0 Z " fill="#6B6D70" transform="translate(864,6)"/>
<path d="M0 0 C15.18 0 30.36 0 46 0 C42.62502533 11.24991556 42.62502533 11.24991556 41.00146484 15.63769531 C40.63546173 16.63144669 40.26945862 17.62519806 39.8923645 18.64906311 C39.30755814 20.22269875 39.30755814 20.22269875 38.7109375 21.828125 C38.29536591 22.95387436 37.87979431 24.07962372 37.45162964 25.23948669 C36.32887041 28.27921503 35.20345182 31.31794162 34.07679749 34.35622787 C32.88978528 37.55933229 31.70630065 40.7637396 30.52246094 43.96801758 C28.597833 49.17612463 26.67129494 54.38352085 24.74316406 59.59033203 C22.30199823 66.18268681 19.86483512 72.7765137 17.4296875 79.37109375 C14.67989922 86.81696661 11.92879261 94.26234945 9.17578125 101.70703125 C5.43771881 111.81550892 1.70141054 121.92463425 -2.03442383 132.03393555 C-5.35615892 141.02266939 -8.67809925 150.01132738 -12 159 C-27.18 159 -42.36 159 -58 159 C-57.33151868 155.65759338 -56.71405714 152.93050456 -55.57983398 149.80029297 C-55.29055527 148.99675888 -55.00127655 148.19322479 -54.70323181 147.36534119 C-54.38737625 146.49970047 -54.07152069 145.63405975 -53.74609375 144.7421875 C-53.41392349 143.82357437 -53.08175323 142.90496124 -52.73951721 141.95851135 C-51.64268135 138.9292674 -50.54030843 135.90207427 -49.4375 132.875 C-48.66462318 130.74620793 -47.89183799 128.6173826 -47.11914062 126.48852539 C-41.17991912 110.14795268 -35.14167713 93.84500354 -29.05709839 77.55809021 C-28.73016998 76.68298294 -28.40324158 75.80787567 -28.06640625 74.90625 C-27.73907501 74.03013565 -27.41174377 73.1540213 -27.07449341 72.25135803 C-24.52190067 65.41304987 -21.98980098 58.56730584 -19.46484375 51.71875 C-18.89595932 50.17623314 -18.89595932 50.17623314 -18.31558228 48.60255432 C-16.83490942 44.58695196 -15.35446264 40.5712702 -13.87719727 36.55441284 C-12.86612924 33.80529496 -11.85310499 31.05690389 -10.83984375 28.30859375 C-10.5549559 27.53193359 -10.27006805 26.75527344 -9.97654724 25.95507812 C-6.76576799 17.25581939 -3.36279293 8.64718182 0 0 Z " fill="#6B6D70" transform="translate(647,6)"/>
<path d="M0 0 C4.41312574 2.12775705 7.47505015 4.79175025 10 9 C11.27416666 13.6341267 11.25934202 17.13552661 9.875 21.75 C7.31309197 26.19064059 4.86821183 29.06589409 0.25 31.375 C-5.46338097 32.47372711 -10.11675596 31.95938847 -15.3125 29.3125 C-18.98122782 26.15568769 -21.62888711 23.56026199 -22.34765625 18.6015625 C-22.55560195 12.58017838 -21.83809308 8.1285412 -17.6640625 3.52734375 C-12.47583774 -1.01551647 -6.59242077 -0.99023845 0 0 Z M-16.3125 9.8125 C-17.65030623 14.06915619 -17.5966046 17.68746989 -15.75 21.75 C-13.36625843 24.81481059 -11.88070621 26.67890382 -7.91796875 27.35546875 C-3.60385059 27.62018247 -1.61070316 27.45477895 1.9375 24.8125 C4.73519394 20.99746281 6.14109494 18.72841302 5.75 13.9375 C4.74251639 9.99152251 4.05875066 7.87191231 0.875 5.25 C-6.18588651 2.18004934 -11.70159535 3.44506025 -16.3125 9.8125 Z " fill="#6B6D6F" transform="translate(1265,5)"/>
<path d="M0 0 C3.21851269 0.05133194 4.48475036 0.19181569 7.3125 1.875 C9.25358207 5.31600912 8.41149835 7.49505413 7.6875 11.3125 C8.05637653 14.61964584 8.05637653 14.61964584 8.6875 17.3125 C7.0375 17.3125 5.3875 17.3125 3.6875 17.3125 C3.419375 16.508125 3.15125 15.70375 2.875 14.875 C2.483125 14.029375 2.09125 13.18375 1.6875 12.3125 C0.6975 11.9825 -0.2925 11.6525 -1.3125 11.3125 C-1.3125 13.2925 -1.3125 15.2725 -1.3125 17.3125 C-2.6325 17.3125 -3.9525 17.3125 -5.3125 17.3125 C-5.33934679 14.66659986 -5.35926357 12.02096904 -5.375 9.375 C-5.38337891 8.62025391 -5.39175781 7.86550781 -5.40039062 7.08789062 C-5.40902441 5.16255687 -5.36474333 3.23714419 -5.3125 1.3125 C-3.74308802 -0.25691198 -2.17115006 0.0675153 0 0 Z M-1.3125 4.3125 C-1.3125 5.3025 -1.3125 6.2925 -1.3125 7.3125 C0.3375 6.9825 1.9875 6.6525 3.6875 6.3125 C3.3575 5.6525 3.0275 4.9925 2.6875 4.3125 C1.3675 4.3125 0.0475 4.3125 -1.3125 4.3125 Z " fill="#6C6E71" transform="translate(1258.3125,11.6875)"/>
</svg>
