<?xml version="1.0" encoding="UTF-8"?>
<svg version="1.1" xmlns="http://www.w3.org/2000/svg" width="512" height="184">
<path d="M0 0 C5.61 0 11.22 0 17 0 C18 1 18 1 18.12025452 3.01844788 C18.1169236 4.3474839 18.1169236 4.3474839 18.11352539 5.70336914 C18.11344986 6.70433121 18.11337433 7.70529327 18.11329651 8.73658752 C18.10813522 9.8251152 18.10297394 10.91364288 18.09765625 12.03515625 C18.0962413 13.14354355 18.09482635 14.25193085 18.09336853 15.39390564 C18.08775033 18.95013069 18.07519475 22.50629383 18.0625 26.0625 C18.05748734 28.46679597 18.05292403 30.87109292 18.04882812 33.27539062 C18.0386239 39.18363706 18.01905205 45.09174885 18 51 C33.51 51 49.02 51 65 51 C65 34.17 65 17.34 65 0 C70.94 0 76.88 0 83 0 C83 40.26 83 80.52 83 122 C77.06 122 71.12 122 65 122 C65 104.84 65 87.68 65 70 C49.49 70 33.98 70 18 70 C18.01160156 73.66996094 18.02320312 77.33992188 18.03515625 81.12109375 C18.04294552 84.65893467 18.04902302 88.19677464 18.05493164 91.73461914 C18.05997356 94.20142033 18.06680691 96.66821852 18.07543945 99.13500977 C18.08751125 102.67204529 18.09322956 106.20904145 18.09765625 109.74609375 C18.10281754 110.85649521 18.10797882 111.96689667 18.11329651 113.11094666 C18.11340981 114.64242088 18.11340981 114.64242088 18.11352539 116.20483398 C18.115746 117.10862289 18.11796661 118.0124118 18.12025452 118.94358826 C18 121 18 121 17 122 C11.39 122 5.78 122 0 122 C0 81.74 0 41.48 0 0 Z " fill="#727171" transform="translate(35,31)"/>
<path d="M0 0 C5.61 0 11.22 0 17 0 C17.33 22.77 17.66 45.54 18 69 C18.99 67.35 19.98 65.7 21 64 C21.66 64 22.32 64 23 64 C23.35771484 62.93072266 23.35771484 62.93072266 23.72265625 61.83984375 C25.20714951 58.5394566 27.0675404 56.29648539 29.4375 53.5625 C30.33380518 52.51453545 31.22826137 51.46498734 32.12109375 50.4140625 C32.5888623 49.86395508 33.05663086 49.31384766 33.53857422 48.74707031 C36.09110525 45.69563161 38.5462807 42.56855871 41 39.4375 C41.46849365 38.84203369 41.9369873 38.24656738 42.41967773 37.63305664 C44.37405086 35.13637994 46.24025401 32.63961898 48 30 C50.33837891 29.65942383 50.33837891 29.65942383 53.2265625 29.70703125 C54.7734375 29.7215332 54.7734375 29.7215332 56.3515625 29.73632812 C57.43179688 29.76146484 58.51203125 29.78660156 59.625 29.8125 C60.71296875 29.82603516 61.8009375 29.83957031 62.921875 29.85351562 C65.61507409 29.88895246 68.30729374 29.93835669 71 30 C69.69582416 32.80250084 68.25272543 35.09522162 66.27734375 37.46875 C65.47623169 38.44013916 65.47623169 38.44013916 64.65893555 39.43115234 C64.09086182 40.11387207 63.52278809 40.7965918 62.9375 41.5 C58.15688329 47.30847238 53.53524591 53.17788404 49.08203125 59.2421875 C46.31711638 62.90453252 43.34740233 66.38229617 40.3359375 69.84375 C38.77377282 71.85573986 38.77377282 71.85573986 39.25683594 73.92236328 C40.06594808 76.18436866 41.01578915 77.56158561 42.5546875 79.3984375 C43.08143066 80.03539551 43.60817383 80.67235352 44.15087891 81.32861328 C44.71983887 82.0039209 45.28879883 82.67922852 45.875 83.375 C47.06866297 84.81691859 48.26135533 86.25964118 49.453125 87.703125 C50.3512793 88.7869043 50.3512793 88.7869043 51.26757812 89.89257812 C54.22319677 93.48796992 57.08663986 97.15379004 59.94995117 100.82275391 C60.38799072 101.38397949 60.82603027 101.94520508 61.27734375 102.5234375 C61.71675293 103.08643555 62.15616211 103.64943359 62.60888672 104.22949219 C64.10467385 106.13322126 65.61540068 108.02439463 67.12890625 109.9140625 C67.64050293 110.55585449 68.15209961 111.19764648 68.67919922 111.85888672 C69.66533324 113.09530532 70.65510044 114.32883716 71.64892578 115.55908203 C75 119.77526672 75 119.77526672 75 122 C57.01010054 124.51911882 57.01010054 124.51911882 50.859375 120.65527344 C47.00458503 117.01669765 44.18870736 112.64796847 41.39404297 108.171875 C39.72575752 105.57273886 37.87138613 103.18820619 35.92602539 100.79296875 C33.57993679 97.89183982 31.29803125 94.9393423 29 92 C25.37 87.38 21.74 82.76 18 78 C17.67 92.52 17.34 107.04 17 122 C11.39 122 5.78 122 0 122 C0 81.74 0 41.48 0 0 Z " fill="#288FC9" transform="translate(409,31)"/>
<path d="M0 0 C5.94 0 11.88 0 18 0 C18 34.32 18 68.64 18 104 C30.87 104 43.74 104 57 104 C57 109.94 57 115.88 57 122 C38.19 122 19.38 122 0 122 C0 81.74 0 41.48 0 0 Z " fill="#288FC9" transform="translate(158,31)"/>
<path d="M0 0 C2.46930151 1.65425934 4.83158138 3.25975907 7.04296875 5.24609375 C7.04296875 5.90609375 7.04296875 6.56609375 7.04296875 7.24609375 C7.70296875 7.24609375 8.36296875 7.24609375 9.04296875 7.24609375 C16.15700813 14.71479199 19.78180394 23.15677529 21.04296875 33.24609375 C15.10296875 33.24609375 9.16296875 33.24609375 3.04296875 33.24609375 C2.69234375 31.92609375 2.34171875 30.60609375 1.98046875 29.24609375 C-0.25467858 22.61376404 -4.46024191 17.48784698 -10.39453125 13.74609375 C-17.1628024 10.77918037 -26.44211729 11.14657132 -33.5234375 12.87109375 C-42.18555437 16.66818608 -46.67315595 24.83937299 -49.95703125 33.24609375 C-55.56703125 33.24609375 -61.17703125 33.24609375 -66.95703125 33.24609375 C-65.4098574 20.86870293 -60.26333795 11.33885293 -50.67578125 3.34375 C-35.62870199 -7.91775078 -16.42139657 -9.74003574 0 0 Z " fill="#288FC9" transform="translate(380.95703125,66.75390625)"/>
<path d="M0 0 C10.2447904 8.07508341 16.25849219 17.63366405 18.12109375 30.671875 C12.18109375 30.671875 6.24109375 30.671875 0.12109375 30.671875 C-0.43578125 29.145625 -0.99265625 27.619375 -1.56640625 26.046875 C-5.04499777 17.43553655 -9.68543588 13.76861018 -17.87890625 9.671875 C-30.63814357 8.58261563 -30.63814357 8.58261563 -41.87890625 13.671875 C-47.29126323 18.63600366 -50.22439969 23.87633821 -52.87890625 30.671875 C-58.48890625 30.671875 -64.09890625 30.671875 -69.87890625 30.671875 C-69.87890625 20.44654139 -64.14758663 10.94720162 -57.109375 3.63671875 C-40.40979576 -11.074119 -18.30301736 -13.18078255 0 0 Z " fill="#288FC9" transform="translate(289.87890625,69.328125)"/>
<path d="M0 0 C5.61 0 11.22 0 17 0 C17.845625 1.85625 18.69125 3.7125 19.5625 5.625 C23.03247293 12.58135234 26.92991584 16.78888608 34 20 C42.27564538 21.8808285 49.27028206 21.38461022 57 18 C59.33878876 16.43671635 59.33878876 16.43671635 61 15 C61.66 15 62.32 15 63 15 C63.268125 14.443125 63.53625 13.88625 63.8125 13.3125 C65 11 65 11 66.5 8.625 C68.363632 5.56282445 68.363632 5.56282445 70 0 C75.61 0 81.22 0 87 0 C87 5.68329894 86.18292114 8.43199979 83.625 13.1875 C83.30789063 13.80302734 82.99078125 14.41855469 82.6640625 15.05273438 C81.23055532 17.80924922 79.72490943 20.41263585 78 23 C77.34 23 76.68 23 76 23 C75.73960937 23.59941406 75.47921875 24.19882813 75.2109375 24.81640625 C71.13099488 32.17346407 61.50979972 35.40005555 54 38 C42.35567638 40.80522342 30.2140726 38.57575502 20.01953125 32.3671875 C10.30418812 25.79006933 3.10095214 16.46004053 0 5 C0 3.35 0 1.7 0 0 Z " fill="#288FC9" transform="translate(220,114)"/>
<path d="M0 0 C5.94 0 11.88 0 18 0 C18.556875 1.52625 19.11375 3.0525 19.6875 4.625 C22.593412 11.79359127 25.91758909 16.02731151 33.09375 19.25390625 C40.52622607 22.16292865 47.66703409 21.52471659 55.01953125 18.8671875 C57.29309799 17.87166123 59.10346047 16.59309321 61 15 C61.66 15 62.32 15 63 15 C63.2475 14.484375 63.495 13.96875 63.75 13.4375 C65.09439219 10.81593523 66.57807521 8.30432796 68.09765625 5.78125 C69.22982581 3.70984335 69.22982581 3.70984335 70 0 C75.94 0 81.88 0 88 0 C85.67626424 13.09741974 79.54979234 23.50764432 68.80859375 31.6640625 C57.59804597 38.39452028 45.59819756 40.59401689 32.9375 37.8125 C27.41357724 36.29696222 22.74751491 34.19261177 18 31 C17.39671875 30.60425781 16.7934375 30.20851562 16.171875 29.80078125 C8.05546694 23.71347521 2.0523035 12.8767106 0 3 C0 2.01 0 1.02 0 0 Z " fill="#288FC9" transform="translate(314,114)"/>
<path d="M0 0 C5.61 0 11.22 0 17 0 C17 30.36 17 60.72 17 92 C11.39 92 5.78 92 0 92 C0 61.64 0 31.28 0 0 Z " fill="#727171" transform="translate(128,61)"/>
<path d="M0 0 C3.82883481 2.61056919 6.00864011 5.33101847 7.3203125 9.83203125 C8.19474911 14.69724773 7.53085056 17.65577846 4.75 21.875 C2.10079221 24.85535877 -0.42807131 27.60531692 -4.51953125 28.2109375 C-10.2749306 28.29934609 -13.8456592 27.96474503 -18.25 23.875 C-20.96105473 20.4522934 -22.15255347 17.66849314 -22.6875 13.3125 C-22.03383666 8.17657377 -20.55778096 5.08469738 -16.75 1.5625 C-11.46109953 -2.00750782 -5.86366566 -2.02973042 0 0 Z " fill="#288FC9" transform="translate(366.25,93.125)"/>
<path d="M0 0 C3.9728923 2.06001823 6.66016744 4.19692921 9 8 C9.36328125 10.65625 9.36328125 10.65625 9.3125 13.5 C9.30863281 14.4384375 9.30476563 15.376875 9.30078125 16.34375 C8.8925892 19.9485629 8.03148678 22.03777372 5.37109375 24.51953125 C0.82209457 27.56138727 -2.43311014 28.70384013 -7.88671875 27.71484375 C-12.09489464 26.29137575 -14.69577164 23.71921011 -17.375 20.1875 C-18.81154243 15.15960151 -18.7240929 10.79588805 -16.3125 6.1875 C-11.90359253 0.11035727 -7.2674569 -1.16638197 0 0 Z " fill="#288FC9" transform="translate(268,93)"/>
<path d="M0 0 C5.61 0 11.22 0 17 0 C17 6.6 17 13.2 17 20 C11.39 20 5.78 20 0 20 C0 13.4 0 6.8 0 0 Z " fill="#727171" transform="translate(128,31)"/>
</svg>
