<?xml version="1.0" encoding="UTF-8"?>
<svg version="1.1" xmlns="http://www.w3.org/2000/svg" width="959" height="260">
<path d="M0 0 C4.46429051 2.2891362 6.10896999 4.78573776 7.9609375 9.31640625 C8.33846092 12.38053894 8.33846092 12.38053894 8.34188843 15.69213867 C8.3503479 16.95383881 8.35880737 18.21553894 8.36752319 19.51547241 C8.36169116 20.90094125 8.35554671 22.28640879 8.34912109 23.671875 C8.35318921 25.14084259 8.35853243 26.60980711 8.36505127 28.07876587 C8.37870227 32.05810201 8.37343545 36.03720423 8.36391401 40.01654434 C8.3563059 44.18575917 8.36336622 48.35495429 8.36807251 52.52416992 C8.37352671 59.52493883 8.36634727 66.52561271 8.35205078 73.52636719 C8.33572488 81.61416457 8.34101363 89.70173505 8.35753 97.78952694 C8.37115444 104.74002235 8.37305985 111.69044956 8.36521399 118.64095402 C8.36054273 122.78935018 8.35989753 126.93763978 8.36982346 131.08602905 C8.37850482 134.98656178 8.37245004 138.88680265 8.35514069 142.78730392 C8.35118207 144.21673473 8.35229921 145.6461902 8.35892868 147.07561111 C8.36715816 149.03062295 8.35499625 150.98568861 8.34188843 152.94067383 C8.34075735 154.03350174 8.33962627 155.12632965 8.33846092 156.25227356 C7.7490395 161.03625606 5.78981845 165.28520883 1.9609375 168.31640625 C-3.93268651 170.28094759 -10.01894448 170.30874493 -15.6015625 167.56640625 C-19.88978152 163.60805023 -20.31893185 160.31858374 -20.6640625 154.56640625 C-20.77621094 152.81070313 -20.77621094 152.81070313 -20.890625 151.01953125 C-20.93960938 150.1275 -20.98859375 149.23546875 -21.0390625 148.31640625 C-21.53792969 148.74050781 -22.03679687 149.16460937 -22.55078125 149.6015625 C-35.03611718 159.80053529 -49.75348719 166.65618022 -66.0390625 167.31640625 C-66.9878125 167.36796875 -67.9365625 167.41953125 -68.9140625 167.47265625 C-82.38905259 167.86897949 -94.92848989 165.22772071 -107.0390625 159.31640625 C-108.40611328 158.68798828 -108.40611328 158.68798828 -109.80078125 158.046875 C-117.79403069 154.09015951 -123.78915072 148.55733828 -130.0390625 142.31640625 C-130.709375 141.65769531 -131.3796875 140.99898437 -132.0703125 140.3203125 C-147.73283602 123.76787287 -152.75197363 101.22281332 -152.34375 79.15234375 C-151.62188496 60.79549479 -144.18770651 44.73753781 -133.0390625 30.31640625 C-132.2759375 29.28515625 -131.5128125 28.25390625 -130.7265625 27.19140625 C-116.56562625 12.0424977 -97.05628629 3.09837933 -76.46875 2.15234375 C-58.09309334 1.75678167 -41.392124 5.82266325 -26.0390625 16.31640625 C-26.0390625 16.97640625 -26.0390625 17.63640625 -26.0390625 18.31640625 C-24.3890625 18.97640625 -22.7390625 19.63640625 -21.0390625 20.31640625 C-21.03648437 19.45917969 -21.03390625 18.60195312 -21.03125 17.71875 C-20.80203729 10.94169433 -20.4692347 6.42140517 -15.609375 1.48828125 C-11.30730632 -1.72221777 -4.93814302 -1.65550772 0 0 Z M-112.0390625 49.31640625 C-121.56588876 61.16850053 -124.52756215 74.45205975 -124.0390625 89.31640625 C-124.02230469 90.04730469 -124.00554687 90.77820313 -123.98828125 91.53125 C-123.3444926 101.70311071 -118.12031482 112.25562605 -112.0390625 120.31640625 C-111.3790625 120.31640625 -110.7190625 120.31640625 -110.0390625 120.31640625 C-109.62914062 121.21939453 -109.62914062 121.21939453 -109.2109375 122.140625 C-104.69447542 130.52618959 -93.15376885 135.13395603 -84.5546875 138.203125 C-70.30184345 141.87037137 -56.87936358 138.02544343 -44.4296875 130.8359375 C-41.33385653 128.86816259 -38.67013668 126.87637031 -36.0390625 124.31640625 C-36.0390625 123.65640625 -36.0390625 122.99640625 -36.0390625 122.31640625 C-35.3790625 122.31640625 -34.7190625 122.31640625 -34.0390625 122.31640625 C-23.51512625 108.21536851 -18.57833124 93.55503645 -20.6015625 75.90234375 C-22.3640334 65.48488184 -27.45290756 55.50459887 -34.0390625 47.31640625 C-34.6990625 47.31640625 -35.3590625 47.31640625 -36.0390625 47.31640625 C-36.0390625 46.65640625 -36.0390625 45.99640625 -36.0390625 45.31640625 C-36.6990625 45.31640625 -37.3590625 45.31640625 -38.0390625 45.31640625 C-38.0390625 44.65640625 -38.0390625 43.99640625 -38.0390625 43.31640625 C-38.6990625 43.31640625 -39.3590625 43.31640625 -40.0390625 43.31640625 C-40.0390625 42.65640625 -40.0390625 41.99640625 -40.0390625 41.31640625 C-63.41381257 24.21703953 -93.18575691 27.18245938 -112.0390625 49.31640625 Z " fill="#57B5C9" transform="translate(534.0390625,90.68359375)"/>
<path d="M0 0 C3.92844654 3.46627636 5.94800937 6.5413882 6.64398193 11.78549194 C6.67304381 13.27910214 6.6807358 14.77322932 6.67089844 16.26708984 C6.68640495 17.49735397 6.68640495 17.49735397 6.70222473 18.75247192 C6.73158062 21.44716257 6.73315035 24.14109974 6.734375 26.8359375 C6.74936154 28.71067735 6.76608969 30.58540402 6.78448486 32.46011353 C6.82811737 37.38214739 6.84814841 42.30400315 6.86322021 47.22619629 C6.88280605 52.25376905 6.92477443 57.2811499 6.96484375 62.30859375 C7.04010147 72.16400324 7.09041985 82.01936969 7.125 91.875 C7.85149246 91.73774002 8.57798492 91.60048004 9.32649231 91.45906067 C37.86499031 86.15172957 70.99163914 85.26679378 96.4375 100.93359375 C107.182207 108.69539518 113.44458357 120.11601457 116.125 132.875 C116.52414027 136.90673067 116.55607756 140.90304976 116.54492188 144.95239258 C116.55339142 146.10503601 116.56186096 147.25767944 116.57058716 148.44525146 C116.59381232 152.22012636 116.59498327 155.99459062 116.59375 159.76953125 C116.60085654 162.40744691 116.60855626 165.04536103 116.61682129 167.68327332 C116.63136754 173.19472563 116.63203201 178.70606467 116.62597656 184.2175293 C116.61931706 190.57818371 116.6422964 196.93826102 116.67929029 203.29879838 C116.7137076 209.44072708 116.72032354 215.58238307 116.71620178 221.72440147 C116.71789494 224.32912612 116.72755614 226.93385827 116.74534607 229.53852272 C116.76746185 233.17434452 116.75787185 236.8087634 116.74023438 240.44458008 C116.75349762 241.51846481 116.76676086 242.59234955 116.78042603 243.69877625 C116.68865463 251.83410888 116.68865463 251.83410888 113.77404785 255.52690125 C109.4262606 259.38075154 105.4343709 259.2083085 99.859375 259.1640625 C96.07470345 258.76396865 93.92942711 257.39179356 91.125 254.875 C89.07006086 251.7925913 88.87371239 251.15225959 88.85998535 247.67124939 C88.85171219 246.81491913 88.84343903 245.95858887 88.83491516 245.0763092 C88.83589706 244.13967941 88.83687897 243.20304962 88.83789062 242.23803711 C88.83105759 241.24904419 88.82422455 240.26005127 88.81718445 239.24108887 C88.80358155 237.09017656 88.79453786 234.93923176 88.78947449 232.78828239 C88.78119204 229.37848018 88.76068937 225.96894664 88.73693848 222.55921936 C88.68865262 215.31035282 88.65579412 208.06145915 88.625 200.8125 C88.58928156 192.43548366 88.5471859 184.0585969 88.48905945 175.68170357 C88.46908073 172.33278264 88.46068691 168.98396243 88.45275879 165.63499451 C88.43977452 163.56256759 88.42625249 161.49014394 88.41210938 159.41772461 C88.41309128 158.49526443 88.41407318 157.57280426 88.41508484 156.62239075 C88.33145926 147.76703771 86.89061927 139.89740627 83.125 131.875 C82.795 130.885 82.465 129.895 82.125 128.875 C81.465 128.875 80.805 128.875 80.125 128.875 C79.50625 128.17375 78.8875 127.4725 78.25 126.75 C70.36868894 118.66128601 58.89031654 116.01715109 47.98730469 115.84033203 C33.48525771 115.88699241 19.99640345 118.90282136 6.125 122.875 C6.12776538 123.53006877 6.13053076 124.18513754 6.13337994 124.86005688 C6.19964004 140.80112669 6.24928067 156.74214858 6.28043652 172.68332195 C6.29590382 180.39236586 6.31699066 188.10131783 6.35131836 195.81030273 C6.38122498 202.52964887 6.400576 209.24892842 6.40726548 215.96833926 C6.41117563 219.52606722 6.42036197 223.0836047 6.44219017 226.64127159 C6.46636317 230.61334166 6.46696917 234.58522557 6.46557617 238.55737305 C6.476362 239.7362912 6.48714783 240.91520935 6.4982605 242.12985229 C6.49207451 243.75567986 6.49207451 243.75567986 6.48576355 245.41435242 C6.48852893 246.35365947 6.49129431 247.29296652 6.49414349 248.26073742 C5.92153137 252.31595846 4.12611942 254.96773553 1.125 257.6875 C-4.32966465 259.84663809 -10.33348248 259.84834714 -15.8125 257.75 C-19.78767344 254.13620596 -22.07547112 250.78036614 -22.37557125 245.3712759 C-22.3961983 243.58092363 -22.39488269 241.79023634 -22.37620544 239.99986267 C-22.38173984 239.01004428 -22.38727424 238.02022589 -22.39297634 237.000413 C-22.40658159 233.68613591 -22.39161383 230.37261201 -22.37670898 227.05834961 C-22.38049216 224.6813678 -22.38599219 222.30438819 -22.39308167 219.92741394 C-22.405602 214.14322115 -22.39946656 208.35926952 -22.38440608 202.57508724 C-22.36753343 195.83815435 -22.37075778 189.10127571 -22.37450016 182.36432821 C-22.38037659 170.34399693 -22.36621513 158.32377046 -22.34155273 146.3034668 C-22.31762722 134.64099195 -22.31055081 122.97865709 -22.32104492 111.31616211 C-22.33245478 98.61321811 -22.33438378 85.91033883 -22.31994683 73.20739561 C-22.318421 71.85286399 -22.31690064 70.49833237 -22.31538582 69.14380074 C-22.314628 68.47735954 -22.31387019 67.81091834 -22.31308941 67.12428195 C-22.30834752 62.42873553 -22.31019731 57.73321802 -22.31445122 53.03767204 C-22.31921732 46.7183468 -22.30913427 40.39921574 -22.28749657 34.07992744 C-22.28192381 31.75833415 -22.28146786 29.43672221 -22.28644943 27.11512756 C-22.29238846 23.95091952 -22.27992319 20.78730793 -22.26268005 17.62315369 C-22.2686901 16.70020112 -22.27470014 15.77724856 -22.28089231 14.82632774 C-22.22261139 8.96203251 -21.25899605 5.65632873 -17.375 1.125 C-12.88565879 -2.61611768 -5.13291616 -2.00853241 0 0 Z " fill="#54B3C8" transform="translate(842.875,1.125)"/>
<path d="M0 0 C1.0621875 0.22171875 2.124375 0.4434375 3.21875 0.671875 C16.45938477 4.07844608 28.52969935 11.45020573 36.23046875 22.83203125 C40.52713101 30.52428974 44.08868465 38.97548823 44.16062927 47.87568665 C44.17569771 49.34544449 44.17569771 49.34544449 44.19107056 50.84489441 C44.19690155 51.9135524 44.20273254 52.98221039 44.20874023 54.08325195 C44.21852402 55.21375977 44.2283078 56.34426758 44.23838806 57.5090332 C44.26831576 61.25210392 44.28971795 64.99513906 44.30859375 68.73828125 C44.31516558 70.0166857 44.3217374 71.29509014 44.32850838 72.61223412 C44.35438538 77.98499983 44.37787388 83.3577514 44.39300442 88.73055744 C44.41490971 96.41730672 44.45689564 104.10335754 44.52644199 111.78982764 C44.5794507 117.85534438 44.59949352 123.92058544 44.60820198 129.98631859 C44.61676784 132.56234348 44.63561339 135.13835554 44.6649456 137.71422768 C44.70379691 141.31956135 44.70490205 144.92307164 44.69702148 148.52856445 C44.7270224 150.1224424 44.7270224 150.1224424 44.75762939 151.7485199 C44.69718711 157.91112069 43.86690656 161.3310094 39.48330784 165.77438641 C35.35725738 169.18362041 30.08051127 168.41173463 25 168 C21.21013111 166.42088796 19.16672085 164.46675336 17 161 C16.08045027 158.2413508 15.87164521 156.60190653 15.86196899 153.75828552 C15.85651566 152.89354111 15.85106232 152.02879669 15.84544373 151.1378479 C15.8444014 150.19186737 15.84335907 149.24588684 15.84228516 148.27124023 C15.83720444 147.27249374 15.83212372 146.27374725 15.82688904 145.24473572 C15.81617913 143.07252826 15.80756139 140.90030972 15.80076981 138.72808647 C15.78898082 135.28473533 15.76952561 131.84150961 15.74765015 128.39820862 C15.68604982 118.60657966 15.63207718 108.81496212 15.59863281 99.02319336 C15.57762859 93.03497203 15.54227386 87.04697711 15.49787521 81.05888557 C15.4837551 78.78127785 15.47500183 76.50363003 15.47182083 74.22598076 C15.4668846 71.02858874 15.44365461 67.8317916 15.41650391 64.63452148 C15.41951004 63.70271057 15.42251617 62.77089966 15.4256134 61.81085205 C15.30732717 52.37947103 13.33449357 43.29458464 6.43359375 36.4453125 C-5.54147842 25.67578451 -19.9110826 24.36723644 -35.4375 25.1875 C-45.49997555 26.14343518 -55.4499288 28.76313167 -65 32 C-65.00219984 32.97348987 -65.00219984 32.97348987 -65.00444412 33.96664619 C-65.04151409 49.76636354 -65.10053107 65.56582398 -65.18390274 81.36535835 C-65.22369301 89.00594556 -65.2560855 96.64642977 -65.27099609 104.28710938 C-65.28401275 110.94761891 -65.3109775 117.60790182 -65.35461307 124.26828372 C-65.37722792 127.79416848 -65.39291069 131.31977374 -65.39188385 134.84573746 C-65.39099842 138.78427324 -65.42125658 142.72223853 -65.45410156 146.66064453 C-65.4490712 147.82661667 -65.44404083 148.99258881 -65.43885803 150.19389343 C-65.5194342 156.43045397 -65.78035725 160.27437141 -70 165 C-73.99365868 168.6305988 -78.25286083 168.45342365 -83.41015625 168.2734375 C-86.80994507 167.91448544 -88.52340828 167.40154349 -91 165 C-95.72454374 157.74659325 -95.5466468 151.0476374 -95.45410156 142.59765625 C-95.45297176 141.14821911 -95.45360954 139.69877969 -95.45587158 138.24934387 C-95.45701448 134.33445006 -95.43357466 130.42005118 -95.40557575 126.50527191 C-95.38049082 122.40669801 -95.37821453 118.30811149 -95.37347412 114.20947266 C-95.3610651 106.45707497 -95.32827176 98.70490419 -95.28807616 90.9526062 C-95.2432937 82.12311655 -95.22135517 73.29361579 -95.20129442 64.46404076 C-95.15953714 46.30923209 -95.08922566 28.15463432 -95 10 C-92.43561551 9.02658663 -89.87023208 8.0559645 -87.30419922 7.08691406 C-86.58185593 6.8123941 -85.85951263 6.53787415 -85.11528015 6.2550354 C-80.17964278 4.39438334 -75.30272768 2.79597989 -70.125 1.75 C-69.37782715 1.5943457 -68.6306543 1.43869141 -67.86083984 1.27832031 C-46.07734901 -3.07746469 -21.81610343 -4.64402202 0 0 Z " fill="#59B5C9" transform="translate(259,92)"/>
<path d="M0 0 C3.50470031 2.25858465 6.12075255 4.63234818 7.40976238 8.69486713 C7.83537511 10.93277954 7.9400651 12.9795784 7.94380188 15.25712585 C7.94781006 16.1415184 7.95181824 17.02591095 7.95594788 17.93710327 C7.95541916 18.89976105 7.95489044 19.86241882 7.9543457 20.85424805 C7.95955734 22.38425697 7.95955734 22.38425697 7.96487427 23.94517517 C7.97222534 26.16047814 7.97757418 28.37578844 7.98116493 30.59110069 C7.98833693 34.10146919 8.00400984 37.61169844 8.02250671 41.12202454 C8.07493692 51.10305863 8.12293579 61.08401674 8.13842773 71.06518555 C8.14852638 77.17130863 8.17790007 83.2770816 8.21974754 89.38306618 C8.23203629 91.70615805 8.2371827 94.02929942 8.23494911 96.35242271 C8.23258814 99.60991962 8.25482473 102.8664177 8.2824707 106.1237793 C8.27586929 107.07631592 8.26926788 108.02885254 8.26246643 109.01025391 C8.3904572 118.23401488 11.55593852 125.30640867 17.8359375 132.02734375 C26.6779383 140.01310336 38.17186803 142.37126821 49.75 142.25 C50.74128906 142.24532715 51.73257813 142.2406543 52.75390625 142.23583984 C62.41317547 142.04592774 71.50877095 140.30784071 80.8125 137.8125 C81.82570312 137.56064941 81.82570312 137.56064941 82.859375 137.30371094 C84.52827753 136.87037293 86.17380612 136.3488766 87.8125 135.8125 C89.06240372 133.31269257 88.93997627 131.62684139 88.94380188 128.82891846 C88.94781006 127.77465668 88.95181824 126.7203949 88.95594788 125.63418579 C88.95541916 124.47260956 88.95489044 123.31103333 88.9543457 122.11425781 C88.95955734 120.28485153 88.95955734 120.28485153 88.96487427 118.41848755 C88.97224195 115.76222434 88.97791011 113.10601138 88.98116493 110.44974518 C88.98707281 106.2472777 89.0036119 102.04489502 89.02250671 97.84246826 C89.02884434 96.40381246 89.03516996 94.96515661 89.04148388 93.5265007 C89.04464969 92.8059379 89.0478155 92.08537509 89.05107725 91.34297705 C89.09315009 81.55809359 89.12611946 71.77324911 89.13842773 61.98828125 C89.14681285 55.39003033 89.16932156 48.79198881 89.2077834 42.19384265 C89.22753233 38.70262262 89.23995273 35.21171555 89.23494911 31.7204361 C89.22943146 27.82285896 89.25472726 23.92580965 89.2824707 20.02832031 C89.27256859 18.29810135 89.27256859 18.29810135 89.26246643 16.53292847 C89.33490958 10.34161388 89.56994844 6.47292873 93.8125 1.8125 C98.20670747 -1.11697164 101.58164571 -1.66303221 106.8125 -1.1875 C111.30279364 -0.01147071 113.77640625 2.35472656 116.8125 5.8125 C117.8959021 9.0627063 117.9356307 11.41009246 117.93275452 14.82987976 C117.93481651 16.71662918 117.93481651 16.71662918 117.93692017 18.64149475 C117.93338102 20.03793359 117.92974621 21.43437218 117.92602539 22.83081055 C117.92574336 24.29921466 117.92590156 25.76761892 117.9264679 27.23602295 C117.92675525 31.2253998 117.92086843 35.2147467 117.91389394 39.20411658 C117.90765019 43.37214491 117.90705579 47.54017389 117.90586853 51.70820618 C117.90275824 59.60233202 117.8945489 67.49644404 117.88451904 75.39056379 C117.87334856 84.37715939 117.86784509 93.36375564 117.86282361 102.35035646 C117.85236605 120.83774548 117.83477242 139.32512163 117.8125 157.8125 C116.21468743 158.46028699 114.61600905 159.10593866 113.01696777 159.75068665 C112.1267971 160.11046254 111.23662643 160.47023844 110.3194809 160.84091663 C107.48785616 161.9383161 104.67074546 162.77030444 101.71875 163.48046875 C100.66816406 163.73376953 99.61757812 163.98707031 98.53515625 164.24804688 C97.47167969 164.49619141 96.40820312 164.74433594 95.3125 165 C94.24902344 165.25974609 93.18554688 165.51949219 92.08984375 165.78710938 C82.51388819 168.06066447 73.18840844 168.96349404 63.359375 169.015625 C62.49669006 169.02132507 61.63400513 169.02702515 60.74517822 169.03289795 C58.93348385 169.04226885 57.12177304 169.04885005 55.31005859 169.05273438 C52.58269607 169.06242822 49.85609247 169.09352301 47.12890625 169.125 C26.24838172 169.25185385 7.72917145 165.081901 -8 150.4375 C-11.58377488 146.67664448 -13.93888171 142.46680918 -16.1875 137.8125 C-16.496875 137.17957031 -16.80625 136.54664063 -17.125 135.89453125 C-20.50242122 128.53889753 -20.33610493 121.292501 -20.33276367 113.36279297 C-20.33612228 112.21742065 -20.3394809 111.07204834 -20.34294128 109.89196777 C-20.35242659 106.11286327 -20.35439288 102.33380316 -20.35546875 98.5546875 C-20.35868191 95.92725608 -20.36204603 93.29982484 -20.36555481 90.6723938 C-20.37193968 85.16977652 -20.37343817 79.66717127 -20.37280273 74.16455078 C-20.37220099 67.80586107 -20.38277607 61.44725593 -20.3985464 55.08858764 C-20.4131933 48.96433529 -20.41679101 42.8401236 -20.41619301 36.71585464 C-20.41737508 34.11228209 -20.4218095 31.50870894 -20.42952538 28.90514755 C-20.43929049 25.27116545 -20.43646139 21.63740339 -20.43041992 18.00341797 C-20.43603943 16.9238382 -20.44165894 15.84425842 -20.44744873 14.73196411 C-20.44325424 13.74226624 -20.43905975 12.75256836 -20.43473816 11.73287964 C-20.43528293 10.87418715 -20.43582769 10.01549465 -20.43638897 9.13078117 C-20.16303292 6.58460086 -19.52457312 4.98415413 -18.1875 2.8125 C-12.52590958 -1.40440873 -6.67485009 -2.48670886 0 0 Z " fill="#55B4C9" transform="translate(20.1875,91.1875)"/>
<path d="M0 0 C2.79383057 3.20327126 3.90705769 6.33778606 4.5 10.5625 C3.7795083 15.51588043 1.48417248 18.51582752 -2 22 C-9.44719021 24.86430393 -17.7495489 22.36532355 -25.19921875 20.796875 C-43.42931277 16.97473812 -62.80292716 14.00878066 -79.9609375 22.9765625 C-82 24 -82 24 -84 24 C-84 24.66 -84 25.32 -84 26 C-87.46153846 29 -87.46153846 29 -90 29 C-90 29.66 -90 30.32 -90 31 C-90.66 31 -91.32 31 -92 31 C-92 31.66 -92 32.32 -92 33 C-93.32615345 34.34047476 -94.66071172 35.67264833 -96 37 C-106.51689564 52.11964459 -108.47011398 68.52683315 -105.5859375 86.59375 C-105.14686888 88.76676759 -104.6181963 90.87157919 -104 93 C-103.81824219 93.65097656 -103.63648438 94.30195313 -103.44921875 94.97265625 C-101.7398793 100.24748903 -98.81812221 104.37311424 -95.5234375 108.80078125 C-94 111 -94 111 -93 114 C-90.99983534 115.20882096 -90.99983534 115.20882096 -89 116 C-89 116.66 -89 117.32 -89 118 C-87.88818359 118.40412109 -87.88818359 118.40412109 -86.75390625 118.81640625 C-84.11585229 119.95020816 -82.21431069 121.21344104 -79.9375 122.9375 C-74.65826905 126.56310249 -69.21675881 127.79311526 -63 129 C-62.24460937 129.185625 -61.48921875 129.37125 -60.7109375 129.5625 C-48.49857656 131.53337093 -34.3889805 130.91296136 -23.0625 125.875 C-17.02474774 123.30389975 -10.22933227 122.61915458 -3.90625 124.68359375 C-2.25 125.5 -2.25 125.5 0 127 C0 127.66 0 128.32 0 129 C0.66 129 1.32 129 2 129 C4.47975234 132.71962851 4.67486349 136.68420631 4 141 C0.28899357 148.1471235 -5.12985055 151.4149645 -12.5 154.125 C-13.44746094 154.50205078 -13.44746094 154.50205078 -14.4140625 154.88671875 C-24.96181872 158.83695687 -36.15728889 159.36887199 -47.3125 159.3125 C-48.49166992 159.30686035 -49.67083984 159.3012207 -50.88574219 159.29541016 C-74.19614539 158.97209915 -93.00283466 151.88776645 -110.671875 136.4453125 C-112 135 -112 135 -112 133 C-112.66 133 -113.32 133 -114 133 C-129.25844609 118.0997334 -135.70190238 94.65642898 -136.25 74 C-135.70156824 53.33097802 -129.6889947 31.90471414 -114.8828125 16.91796875 C-112.82750557 14.94388287 -112.82750557 14.94388287 -111 12 C-110.34 12 -109.68 12 -109 12 C-109 11.34 -109 10.68 -109 10 C-108.34 10 -107.68 10 -107 10 C-107 9.34 -107 8.68 -107 8 C-105.03072954 6.4449968 -103.07666457 5.02336133 -101 3.625 C-100.40131104 3.21870361 -99.80262207 2.81240723 -99.18579102 2.39379883 C-72.72262184 -15.33055323 -27.4760141 -17.96508614 0 0 Z " fill="#58B4C9" transform="translate(793,101)"/>
<path d="M0 0 C2.64016854 1.71917951 4.11452716 3.04099123 5.6875 5.75 C5.6875 6.41 5.6875 7.07 5.6875 7.75 C6.656875 7.35167969 7.62625 6.95335938 8.625 6.54296875 C21.92795504 1.21910299 34.50469086 -1.47574522 48.875 -1.5625 C49.7724292 -1.56813965 50.6698584 -1.5737793 51.59448242 -1.57958984 C56.05216573 -1.52968883 59.64203356 -1.35230243 63.6875 0.75 C63.6875 1.41 63.6875 2.07 63.6875 2.75 C64.3475 2.75 65.0075 2.75 65.6875 2.75 C68.63233521 8.28629019 69.54141522 12.63318991 67.6875 18.75 C65.88815041 21.75309566 63.87263755 24.15743123 60.6875 25.75 C59.18684765 25.93495739 57.67994342 26.07061709 56.171875 26.1796875 C54.80011108 26.28651855 54.80011108 26.28651855 53.40063477 26.39550781 C52.42280029 26.47124023 51.44496582 26.54697266 50.4375 26.625 C35.23398603 27.93435835 21.41865671 30.88442165 7.6875 37.75 C7.68530016 38.68483687 7.68530016 38.68483687 7.68305588 39.63855934 C7.64598257 54.81238996 7.58696116 69.98596349 7.50359726 85.15960121 C7.46381047 92.49751775 7.43141623 99.83532711 7.41650391 107.17333984 C7.40348543 113.57016564 7.37651607 119.96675556 7.33288693 126.3634485 C7.31027611 129.74960759 7.29458906 133.1354758 7.29561615 136.52171707 C7.29325465 140.30471536 7.26623803 144.08678956 7.23339844 147.86962891 C7.2384288 148.98884735 7.24345917 150.1080658 7.24864197 151.26119995 C7.14889385 158.68003372 6.16987751 162.33987098 0.8046875 167.59375 C-3.54724935 169.97045352 -8.5292479 169.42784054 -13.3125 168.75 C-17.03111007 167.08939932 -18.90235943 164.75941533 -20.44464397 160.96362972 C-21.34111993 157.64402177 -21.56665258 154.88932569 -21.57319641 151.45692444 C-21.58028122 150.21349777 -21.58736603 148.97007111 -21.59466553 147.68896484 C-21.59237206 146.32397424 -21.58986241 144.95898399 -21.5871582 143.59399414 C-21.59150876 142.14635455 -21.59669306 140.69871726 -21.60264587 139.25108337 C-21.61600973 135.32958007 -21.6166175 131.40817329 -21.61408257 127.48665166 C-21.61301116 124.20885459 -21.61790057 120.93107692 -21.622688 117.65328401 C-21.63377399 109.91866215 -21.6342256 102.18408885 -21.62817383 94.44946289 C-21.62213308 86.47870968 -21.63444966 78.50813295 -21.6557439 70.53740984 C-21.67337412 63.68542008 -21.67935904 56.83348642 -21.67610615 49.98147482 C-21.67429553 45.89283951 -21.67690749 41.80433012 -21.69082069 37.71571541 C-21.70341772 33.87018638 -21.70143738 30.02493204 -21.68840981 26.17940712 C-21.6860486 24.77135372 -21.68876238 23.36328087 -21.69703293 21.95524979 C-21.7696349 8.63016915 -21.7696349 8.63016915 -18.3125 2.75 C-13.09165978 -2.14453771 -6.46004679 -2.43775351 0 0 Z " fill="#57B4C9" transform="translate(589.3125,91.25)"/>
<path d="M0 0 C1.26853569 -0.0049926 1.26853569 -0.0049926 2.56269836 -0.01008606 C4.34346986 -0.01512028 6.12425069 -0.01749548 7.9050293 -0.01733398 C10.58854258 -0.01951118 13.27163782 -0.03767899 15.95507812 -0.05664062 C29.22285691 -0.10201817 41.52516617 1.14338324 54.30078125 4.91796875 C55.65393433 5.31483887 55.65393433 5.31483887 57.03442383 5.71972656 C76.23653168 11.4747268 95.31425585 20.36982778 110.92578125 33.16796875 C110.92578125 33.82796875 110.92578125 34.48796875 110.92578125 35.16796875 C111.46589844 35.39097656 112.00601563 35.61398438 112.5625 35.84375 C115.6849771 37.5933694 118.14711936 39.92035665 120.73828125 42.35546875 C121.26800537 42.84797119 121.79772949 43.34047363 122.34350586 43.84790039 C134.32130821 55.03145275 134.32130821 55.03145275 136.92578125 59.16796875 C136.92578125 59.82796875 136.92578125 60.48796875 136.92578125 61.16796875 C132.43344558 59.83168355 128.74599893 58.02181498 124.73828125 55.60546875 C113.60693874 49.06388438 101.78744006 43.17200399 89.53515625 39.05078125 C87.69483532 38.4281577 85.87261602 37.75073116 84.06640625 37.03515625 C63.25338843 28.96376641 41.07601665 25.77241236 18.92578125 24.16796875 C18.19423828 24.11382813 17.46269531 24.0596875 16.70898438 24.00390625 C-26.51046603 21.28284956 -74.10332043 37.09837931 -110.25390625 60.13671875 C-112.07421875 61.16796875 -112.07421875 61.16796875 -114.07421875 61.16796875 C-112.74654702 57.25876052 -111.14764285 54.86549053 -108.23046875 51.9609375 C-107.10318359 50.83461914 -107.10318359 50.83461914 -105.953125 49.68554688 C-105.16808594 48.91662109 -104.38304687 48.14769531 -103.57421875 47.35546875 C-102.78917969 46.56720703 -102.00414062 45.77894531 -101.1953125 44.96679688 C-95.34125744 39.16796875 -95.34125744 39.16796875 -93.07421875 39.16796875 C-93.07421875 38.50796875 -93.07421875 37.84796875 -93.07421875 37.16796875 C-91.25773748 35.54753268 -89.44871358 34.07078464 -87.51171875 32.60546875 C-86.93252686 32.16436768 -86.35333496 31.7232666 -85.7565918 31.26879883 C-72.34742105 21.26064725 -57.7287458 13.95902291 -42.07421875 8.16796875 C-41.45385742 7.92353027 -40.83349609 7.6790918 -40.19433594 7.42724609 C-35.38983465 5.55384473 -30.59933998 4.18712204 -25.57421875 3.04296875 C-24.86652344 2.87410156 -24.15882813 2.70523437 -23.4296875 2.53125 C-15.61185545 0.71614091 -8.00666265 0.01123753 0 0 Z " fill="#59B5C9" transform="translate(628.07421875,-0.16796875)"/>
<path d="M0 0 C3.61235255 2.81763499 5.04272098 5.0848787 6.125 9.4375 C6.56056871 14.19161016 6.53569772 18.93740771 6.51318359 23.70703125 C6.51725306 25.15481969 6.52259704 26.60260503 6.52911377 28.05038452 C6.5427487 31.96774844 6.53750464 35.88487439 6.52797651 39.80224228 C6.52036003 43.90959038 6.52743104 48.01691865 6.53213501 52.12426758 C6.53758678 59.02070763 6.53041617 65.91705118 6.51611328 72.81347656 C6.49978785 80.77687597 6.50507677 88.74004493 6.5215925 96.70343876 C6.53522388 103.55121102 6.53711896 110.39891407 6.52927649 117.24669552 C6.52460904 121.33195203 6.52394949 125.41710037 6.53388596 129.50234985 C6.54257746 133.3438046 6.53649415 137.18496336 6.51920319 141.02638626 C6.51524996 142.43282201 6.51635241 143.83928283 6.52299118 145.24570847 C6.58016724 158.59310694 6.58016724 158.59310694 3.125 164.4375 C-0.43890841 167.9123107 -3.47073229 168.76362545 -8.3125 169.0625 C-13.42706882 168.89503799 -16.04079617 167.50295547 -19.6328125 163.9453125 C-22.21784526 160.80750544 -22.00916264 158.3793518 -22.02890015 154.39093018 C-22.03750061 153.10107208 -22.04610107 151.81121399 -22.05496216 150.48226929 C-22.05939755 149.04449503 -22.0636959 147.60672035 -22.06787109 146.16894531 C-22.07577106 144.6611614 -22.08403995 143.15337938 -22.09265137 141.64559937 C-22.1188852 136.68562631 -22.13418103 131.72564477 -22.1484375 126.765625 C-22.15379675 125.05886581 -22.15917426 123.35210667 -22.16456985 121.6453476 C-22.18620118 114.54583595 -22.20493796 107.44632659 -22.21619225 100.34679031 C-22.23243143 90.16915511 -22.26560532 79.99190171 -22.32259309 69.81441045 C-22.36128751 62.66019535 -22.38082437 55.50608239 -22.38611281 48.35176539 C-22.38976718 44.07797748 -22.40179691 39.80459664 -22.43421555 35.53092194 C-22.46428746 31.50888679 -22.47061149 27.4875052 -22.45883179 23.46538162 C-22.45861097 21.9907729 -22.46692301 20.51613394 -22.48448563 19.04162979 C-22.62558966 6.51082438 -22.62558966 6.51082438 -19.46621704 2.59783936 C-13.62873701 -2.26896171 -7.03260914 -3.47897649 0 0 Z " fill="#58B5C9" transform="translate(351.875,91.5625)"/>
<path d="M0 0 C4.14396975 3.28356925 6.50403652 6.66527531 7.90625 11.8359375 C8.19064799 18.90879193 5.92465646 23.16135573 1.46875 28.5859375 C-2.29069195 31.59349106 -6.18220849 32.262824 -10.95703125 32.171875 C-14.7198286 31.58028346 -17.85315649 29.76650385 -21.09375 27.8359375 C-21.09375 27.1759375 -21.09375 26.5159375 -21.09375 25.8359375 C-21.75375 25.8359375 -22.41375 25.8359375 -23.09375 25.8359375 C-26.43467349 19.15409052 -27.18465576 14.28090304 -24.90625 7.0859375 C-22.43884659 2.66162794 -19.90736497 0.72165644 -15.40625 -1.4765625 C-10.08037671 -2.58193243 -4.86819439 -2.70657076 0 0 Z " fill="#58B5C9" transform="translate(353.09375,30.1640625)"/>
<path d="M0 0 C10.4932178 4.07540582 19.76661894 9.61163832 29 16 C30.10601563 16.69867187 31.21203125 17.39734375 32.3515625 18.1171875 C33.22554687 18.73851563 34.09953125 19.35984375 35 20 C35 20.66 35 21.32 35 22 C35.54011719 22.22300781 36.08023438 22.44601563 36.63671875 22.67578125 C39.75919585 24.42540065 42.22133811 26.7523879 44.8125 29.1875 C45.34222412 29.68000244 45.87194824 30.17250488 46.41772461 30.67993164 C58.39552696 41.863484 58.39552696 41.863484 61 46 C61 46.66 61 47.32 61 48 C56.50766433 46.6637148 52.82021768 44.85384623 48.8125 42.4375 C37.68115749 35.89591563 25.86165881 30.00403524 13.609375 25.8828125 C11.76905407 25.26018895 9.94683477 24.58276241 8.140625 23.8671875 C-3.86401142 19.21173094 -16.44808543 16.73378604 -29 14 C-29 13.67 -29 13.34 -29 13 C-22.25405186 12.65698569 -16.54839567 13.63954896 -10.015625 15.34375 C-7.22594702 15.95083018 -4.84066805 16.12625191 -2 16 C-2 14.35 -2 12.7 -2 11 C-0.02 10.34 1.96 9.68 4 9 C2.80100302 5.9168649 1.52299523 2.93720508 0 0 Z " fill="#5FB7CA" transform="translate(704,13)"/>
<path d="M0 0 C0.33 0.66 0.66 1.32 1 2 C0.34 2.66 -0.32 3.32 -1 4 C-0.68770276 5.33841672 -0.35169068 6.67139075 0 8 C-0.4375 10.25 -0.4375 10.25 -1 12 C0.65 12 2.3 12 4 12 C0.45753351 14.93388891 -3.50973526 16.828406 -7.625 18.8125 C-13.32965265 21.60195978 -18.81793426 24.55176828 -24.1796875 27.96875 C-26 29 -26 29 -28 29 C-26.67232827 25.09079177 -25.0734241 22.69752178 -22.15625 19.79296875 C-21.40472656 19.04208984 -20.65320313 18.29121094 -19.87890625 17.51757812 C-19.09386719 16.74865234 -18.30882812 15.97972656 -17.5 15.1875 C-16.71496094 14.39923828 -15.92992187 13.61097656 -15.12109375 12.79882812 C-9.26703869 7 -9.26703869 7 -7 7 C-7 6.34 -7 5.68 -7 5 C-5.46875 3.7109375 -5.46875 3.7109375 -3.5 2.375 C-2.8503125 1.92898437 -2.200625 1.48296875 -1.53125 1.0234375 C-1.0259375 0.68570313 -0.520625 0.34796875 0 0 Z " fill="#70BECF" transform="translate(542,32)"/>
<path d="M0 0 C4.38077912 1.69629686 7.17377056 4.91500064 10.30371094 8.31542969 C10.95339844 8.98832031 11.60308594 9.66121094 12.27246094 10.35449219 C20.42871094 18.87995515 20.42871094 18.87995515 20.42871094 21.94042969 C15.89277211 20.59392911 12.16540926 18.74979802 8.11621094 16.31542969 C0.15318211 11.61765822 -8.1636531 7.76763443 -16.57128906 3.94042969 C-13.47408061 3.06201973 -11.66483504 2.94607562 -8.57128906 3.94042969 C-8.57128906 2.62042969 -8.57128906 1.30042969 -8.57128906 -0.05957031 C-5.52979753 -1.58031608 -3.23044733 -0.77235765 0 0 Z " fill="#68B9CD" transform="translate(744.5712890625,39.0595703125)"/>
<path d="M0 0 C4.26574762 1.52348129 5.86459961 4.10385569 8 8 C8.36070889 10.9608932 8.50896406 13.534048 8.45410156 16.48388672 C8.45468567 17.31381638 8.45526978 18.14374603 8.45587158 18.99882507 C8.45309772 21.7262133 8.42203951 24.45249158 8.390625 27.1796875 C8.38316011 29.07682702 8.37746835 30.97397427 8.37347412 32.87112427 C8.35823731 37.85255403 8.31897231 42.83351366 8.2746582 47.8147583 C8.23366336 52.90248252 8.21545411 57.99028305 8.1953125 63.078125 C8.15247618 73.05228933 8.08424849 83.0261055 8 93 C7.34 92.67 6.68 92.34 6 92 C5.99413376 90.95208282 5.98826752 89.90416565 5.98222351 88.82449341 C5.92509446 78.9651473 5.85238484 69.10602384 5.76428509 59.24690437 C5.71949273 54.17780256 5.68025642 49.10878278 5.65356445 44.03955078 C5.62761959 39.15054556 5.58728054 34.26185452 5.53681374 29.37304306 C5.5200851 27.50470757 5.50860832 25.63631766 5.50238609 23.76791763 C5.49280982 21.15760341 5.46482991 18.54810391 5.43237305 15.93798828 C5.43380814 15.1597168 5.43524323 14.38144531 5.4367218 13.57958984 C5.4299522 11.21014501 5.4299522 11.21014501 5 8 C4.01 7.34 3.02 6.68 2 6 C0.8125 2.875 0.8125 2.875 0 0 Z " fill="#66AEC3" transform="translate(841,1)"/>
<path d="M0 0 C0.33 0 0.66 0 1 0 C1.07009498 15.82044619 1.12299053 31.64085043 1.15543652 47.46141338 C1.17090249 54.80725484 1.19198676 62.15299979 1.22631836 69.4987793 C1.25622909 75.90169919 1.27557697 82.30454918 1.28226548 88.707537 C1.28617494 92.09759507 1.29535683 95.48745317 1.31719017 98.87744713 C1.33891456 102.6628043 1.34196893 106.44774498 1.34057617 110.2331543 C1.351362 111.35596802 1.36214783 112.47878174 1.3732605 113.63562012 C1.36913651 114.66902023 1.36501251 115.70242035 1.36076355 116.76713562 C1.36352893 117.66219661 1.36629431 118.5572576 1.36914349 119.47944164 C0.91841681 122.55706035 -0.21344455 124.47908521 -2 127 C-2.33 127 -2.66 127 -3 127 C-3.25151083 122.47280504 -3.25151083 122.47280504 -2.00959206 120.13817215 C-0.8132962 117.60458795 -0.73936571 115.83396052 -0.7215271 113.03924561 C-0.71036362 112.04087677 -0.69920013 111.04250793 -0.68769836 110.0138855 C-0.68553818 108.92487946 -0.68337799 107.83587341 -0.68115234 106.71386719 C-0.66608391 104.98660904 -0.66608391 104.98660904 -0.65071106 103.22445679 C-0.6198004 99.41526797 -0.60282178 95.6061497 -0.5859375 91.796875 C-0.56723222 89.15699656 -0.5476593 86.51712413 -0.5272522 83.8772583 C-0.48047852 77.63713234 -0.44372763 71.39698922 -0.41057932 65.15677762 C-0.37234793 58.05156429 -0.32294045 50.94644242 -0.27259517 43.84130621 C-0.16929636 29.22760789 -0.08002929 14.61384404 0 0 Z " fill="#87CBD7" transform="translate(595,129)"/>
<path d="M0 0 C0 0.33 0 0.66 0 1 C-1.98 1 -3.96 1 -6 1 C-6 0.34 -6 -0.32 -6 -1 C-7.04800781 -0.98259766 -7.04800781 -0.98259766 -8.1171875 -0.96484375 C-9.48230469 -0.95130859 -9.48230469 -0.95130859 -10.875 -0.9375 C-12.23238281 -0.92009766 -12.23238281 -0.92009766 -13.6171875 -0.90234375 C-16 -1 -16 -1 -18 -2 C-19.88472859 -2.15344209 -21.77427874 -2.24959571 -23.6640625 -2.31640625 C-24.78554688 -2.35830078 -25.90703125 -2.40019531 -27.0625 -2.44335938 C-28.238125 -2.48267578 -29.41375 -2.52199219 -30.625 -2.5625 C-31.80835938 -2.60568359 -32.99171875 -2.64886719 -34.2109375 -2.69335938 C-37.14050328 -2.79967426 -40.07015588 -2.90170642 -43 -3 C-43 -2.34 -43 -1.68 -43 -1 C-48.94 -0.505 -48.94 -0.505 -55 0 C-44.08873294 -10.91126706 -12.70009664 -5.58512854 0 0 Z " fill="#90C9D5" transform="translate(491,98)"/>
<path d="M0 0 C0 3 0 3 -1 6 C0.65 6 2.3 6 4 6 C4.33 4.68 4.66 3.36 5 2 C5 2.99 5 3.98 5 5 C5.66 5.33 6.32 5.66 7 6 C5.88625 6.53625 4.7725 7.0725 3.625 7.625 C-0.71012429 9.77707956 -4.7970285 12.26315714 -8.8984375 14.828125 C-11 16 -11 16 -13 16 C-11.57699887 11.31095412 -8.84303666 8.48389525 -5.375 5.1875 C-4.859375 4.68541016 -4.34375 4.18332031 -3.8125 3.66601562 C-2.54840846 2.43703773 -1.27511194 1.21753999 0 0 Z " fill="#7FC2CF" transform="translate(527,45)"/>
<path d="M0 0 C0 0.66 0 1.32 0 2 C-0.66 2 -1.32 2 -2 2 C-2.33 2.99 -2.66 3.98 -3 5 C-3.99 5.495 -3.99 5.495 -5 6 C-6.68655026 9.42766388 -7.25998011 12.26871741 -7.31884766 16.06567383 C-7.33871735 17.04631302 -7.35858704 18.02695221 -7.37905884 19.03730774 C-7.39061005 20.0833165 -7.40216125 21.12932526 -7.4140625 22.20703125 C-7.43342865 23.28756271 -7.4527948 24.36809418 -7.4727478 25.48136902 C-7.53242103 28.9249996 -7.57888041 32.36866383 -7.625 35.8125 C-7.66319101 38.15040502 -7.7022434 40.48829615 -7.7421875 42.82617188 C-7.83811253 48.55065765 -7.92319593 54.27522748 -8 60 C-8.33 60 -8.66 60 -9 60 C-9.10155026 52.70438547 -9.17152891 45.40895371 -9.21972656 38.11279297 C-9.23982241 35.63160389 -9.26710384 33.15046205 -9.30175781 30.66943359 C-9.35036294 27.09981618 -9.37298972 23.53082584 -9.390625 19.9609375 C-9.42159271 18.30123428 -9.42159271 18.30123428 -9.45318604 16.60800171 C-9.45498089 10.42584952 -9.23278666 6.65224339 -5 2 C-2 0 -2 0 0 0 Z " fill="#6CB0C1" transform="translate(119,91)"/>
<path d="M0 0 C0 0.33 0 0.66 0 1 C-0.57032959 1.05534912 -1.14065918 1.11069824 -1.72827148 1.16772461 C-4.29848753 1.41973743 -6.86797631 1.67852728 -9.4375 1.9375 C-10.33533203 2.02451172 -11.23316406 2.11152344 -12.15820312 2.20117188 C-13.43920898 2.33168945 -13.43920898 2.33168945 -14.74609375 2.46484375 C-15.93223267 2.58267212 -15.93223267 2.58267212 -17.14233398 2.70288086 C-19.01103348 2.81551499 -19.01103348 2.81551499 -20 4 C-21.99958364 4.04080783 -24.00045254 4.04254356 -26 4 C-26 3.67 -26 3.34 -26 3 C-32.6 3 -39.2 3 -46 3 C-46 2.67 -46 2.34 -46 2 C-30.67153228 -0.27088411 -15.47028229 -0.21491095 0 0 Z " fill="#78C1D1" transform="translate(244,90)"/>
<path d="M0 0 C0 0.66 0 1.32 0 2 C1.09699219 2.06058594 2.19398438 2.12117187 3.32421875 2.18359375 C4.77865654 2.26804498 6.23308305 2.35269066 7.6875 2.4375 C8.40873047 2.47681641 9.12996094 2.51613281 9.87304688 2.55664062 C13.66707282 2.78185678 17.28651492 3.12839305 21 4 C20.67 4.66 20.34 5.32 20 6 C12.62039416 6.34118041 5.6225863 5.98185027 -1.625 4.625 C-2.65463867 4.43587036 -2.65463867 4.43587036 -3.70507812 4.24291992 C-7.03420459 3.57784144 -9.1353205 2.90978634 -12 1 C-10.37512529 0.83211627 -8.75009558 0.66573213 -7.125 0.5 C-6.22007812 0.4071875 -5.31515625 0.314375 -4.3828125 0.21875 C-2 0 -2 0 0 0 Z " fill="#81C4D2" transform="translate(448,252)"/>
<path d="M0 0 C3.37526153 1.20545055 5.23947384 3.06391807 7.1619873 6.06842041 C8.86928251 10.00365503 8.48193012 14.21339529 8.390625 18.4296875 C8.38496521 19.42001984 8.37930542 20.41035217 8.37347412 21.43069458 C8.35116674 24.57929775 8.30098002 27.72674349 8.25 30.875 C8.22992775 33.01560851 8.21167825 35.15623494 8.1953125 37.296875 C8.15132069 42.5316418 8.08446528 47.76573819 8 53 C7.67 53 7.34 53 7 53 C6.98018066 51.74864258 6.96036133 50.49728516 6.93994141 49.20800781 C6.86384707 44.563598 6.77513537 39.91949992 6.68261719 35.27539062 C6.64434331 33.26568762 6.60948764 31.25591649 6.578125 29.24609375 C6.53244009 26.3565232 6.47445113 23.46742104 6.4140625 20.578125 C6.40251129 19.68007141 6.39096008 18.78201782 6.37905884 17.85675049 C6.35918915 17.01618103 6.33931946 16.17561157 6.31884766 15.30957031 C6.30552399 14.57232727 6.29220032 13.83508423 6.2784729 13.07550049 C5.95643764 10.67532317 5.26748565 9.05669332 4 7 C3.34 6.67 2.68 6.34 2 6 C1.27306096 4.02111039 0.60183749 2.02045442 0 0 Z " fill="#79B0BD" transform="translate(841,1)"/>
<path d="M0 0 C0.33 0 0.66 0 1 0 C1.10146163 7.17150787 1.17149156 14.34283049 1.21972656 21.51489258 C1.23983564 23.95441607 1.26712683 26.3938914 1.30175781 28.83325195 C1.35030489 32.34077848 1.37297632 35.84766743 1.390625 39.35546875 C1.41127014 40.44522507 1.43191528 41.53498138 1.45318604 42.65776062 C1.45544041 50.27383289 1.45544041 50.27383289 -1.02441406 54.2277832 C-1.67635742 54.81261475 -2.32830078 55.39744629 -3 56 C-3.33 54.68 -3.66 53.36 -4 52 C-3.01 52 -2.02 52 -1 52 C-0.67 34.84 -0.34 17.68 0 0 Z " fill="#72ACBC" transform="translate(848,201)"/>
<path d="M0 0 C0 0.66 0 1.32 0 2 C-9.04153735 5.99955064 -19.96549179 10.53517377 -30 10 C-30 9.34 -30 8.68 -30 8 C-25.46298506 6.54815522 -21.81938524 5.76490804 -17 6 C-17 5.34 -17 4.68 -17 4 C-16.40832031 3.87882813 -15.81664063 3.75765625 -15.20703125 3.6328125 C-10.17387809 2.56542276 -5.04854633 0 0 0 Z " fill="#87C5D1" transform="translate(138,247)"/>
<path d="M0 0 C1.98 0 3.96 0 6 0 C6.33 1.32 6.66 2.64 7 4 C5.66666667 4.66666667 4.33333333 5.33333333 3 6 C2.360625 6.37125 1.72125 6.7425 1.0625 7.125 C-1.41109822 8.17440531 -3.33953538 8.14780359 -6 8 C-5.49396008 5.83125748 -5.00016187 4.00032373 -4 2 C-2.68 2 -1.36 2 0 2 C0 1.34 0 0.68 0 0 Z " fill="#54B2C6" transform="translate(532,43)"/>
<path d="M0 0 C2.97 0 5.94 0 9 0 C9 0.66 9 1.32 9 2 C9.95712891 2.27263672 9.95712891 2.27263672 10.93359375 2.55078125 C11.75988281 2.80214844 12.58617187 3.05351563 13.4375 3.3125 C14.67306641 3.67794922 14.67306641 3.67794922 15.93359375 4.05078125 C16.61550781 4.36402344 17.29742187 4.67726563 18 5 C18.33 5.99 18.66 6.98 19 8 C19.66 8.33 20.32 8.66 21 9 C22.03145371 10.30915279 23.03542166 11.64082143 24 13 C20.48606974 13 20.19513318 12.5580229 17.75 10.25 C12.37895842 5.46571086 6.98825329 2.71140897 0 1 C0 0.67 0 0.34 0 0 Z " fill="#87C7D2" transform="translate(246,117)"/>
<path d="M0 0 C0.66 0 1.32 0 2 0 C-0.5375 5.4375 -0.5375 5.4375 -3.625 6.625 C-12.32737558 7.9990593 -20.53316795 5.85211951 -29 4 C-29 3.67 -29 3.34 -29 3 C-23.0772713 2.89132608 -17.37733546 3.29165664 -11.5 4 C-10.67757812 4.09539062 -9.85515625 4.19078125 -9.0078125 4.2890625 C-7.00473174 4.52197887 -5.00229341 4.76040934 -3 5 C-2.690625 4.360625 -2.38125 3.72125 -2.0625 3.0625 C-1 1 -1 1 0 0 Z " fill="#95CBD6" transform="translate(793,117)"/>
<path d="M0 0 C4.11018964 3.35973367 7.94640442 6.60282237 11 11 C11 11.66 11 12.32 11 13 C6.38486888 11.68139111 2.90102388 9.78644563 -1 7 C-0.67 4.69 -0.34 2.38 0 0 Z " fill="#8CC7D1" transform="translate(754,48)"/>
<path d="M0 0 C0 0.66 0 1.32 0 2 C-0.99 2.495 -0.99 2.495 -2 3 C-2 3.66 -2 4.32 -2 5 C-3.01320313 5.18175781 -3.01320313 5.18175781 -4.046875 5.3671875 C-4.93890625 5.53476563 -5.8309375 5.70234375 -6.75 5.875 C-7.63171875 6.03742188 -8.5134375 6.19984375 -9.421875 6.3671875 C-11.99676635 6.89590797 -11.99676635 6.89590797 -14.15625 8.09375 C-16.70615149 9.34709141 -18.33216492 8.7410653 -21 8 C-18.20071154 6.13380769 -16.3690047 5.42751741 -13.1875 4.5625 C-8.89285523 3.33366734 -4.3171823 0 0 0 Z " fill="#88C5D1" transform="translate(489,222)"/>
<path d="M0 0 C0.33 0 0.66 0 1 0 C1 1.65 1 3.3 1 5 C1.66 5 2.32 5 3 5 C3.33 7.97 3.66 10.94 4 14 C4.99 13.67 5.98 13.34 7 13 C7 16.3 7 19.6 7 23 C3.73078548 21.36539274 3.16908393 18.2823866 1.88671875 14.98828125 C0.42591995 10.06532493 0.17561718 5.11046004 0 0 Z " fill="#8BCDD8" transform="translate(0,210)"/>
<path d="M0 0 C7.44210016 -0.37841187 17.95606095 -0.44825509 23.8828125 4.60546875 C24.25148438 5.06566406 24.62015625 5.52585937 25 6 C19.66555632 5.16922598 14.40316139 4.06228891 9.125 2.9375 C8.24585938 2.75123047 7.36671875 2.56496094 6.4609375 2.37304688 C4.30704466 1.91651524 2.15340991 1.45880321 0 1 C0 0.67 0 0.34 0 0 Z " fill="#8BC8D2" transform="translate(675,26)"/>
<path d="M0 0 C1.9375 1.125 1.9375 1.125 4 3 C4.75 6.1875 4.75 6.1875 5 9 C2.6875 9.6875 2.6875 9.6875 0 10 C-1.8125 8.5625 -1.8125 8.5625 -3 7 C-2.34 6.34 -1.68 5.68 -1 5 C-0.35232207 2.42938689 -0.35232207 2.42938689 0 0 Z " fill="#78BED0" transform="translate(750,44)"/>
<path d="M0 0 C0.66 0 1.32 0 2 0 C2 0.66 2 1.32 2 2 C2.66 2 3.32 2 4 2 C6.94611386 7.53869405 7.66485444 11.85380806 6 18 C5.34 18.66 4.68 19.32 4 20 C4 15.05 4 10.1 4 5 C3.01 5 2.02 5 1 5 C0.67 3.35 0.34 1.7 0 0 Z " fill="#86C7D1" transform="translate(651,92)"/>
<path d="M0 0 C0.52464844 0.13277344 1.04929688 0.26554688 1.58984375 0.40234375 C9.9889956 2.31695906 18.42390121 2.62193532 27 3 C27 3.33 27 3.66 27 4 C19.41 4.33 11.82 4.66 4 5 C4 4.01 4 3.02 4 2 C2.68 2 1.36 2 0 2 C0 1.34 0 0.68 0 0 Z " fill="#88CCD7" transform="translate(49,231)"/>
<path d="M0 0 C6.22297833 -0.24403837 9.84599161 0.56399441 15 4 C14.67 4.66 14.34 5.32 14 6 C12.54096742 5.69078116 11.08279278 5.37751201 9.625 5.0625 C8.81289062 4.88847656 8.00078125 4.71445313 7.1640625 4.53515625 C5 4 5 4 3 3 C3 2.34 3 1.68 3 1 C2.01 0.67 1.02 0.34 0 0 Z " fill="#7AC2CD" transform="translate(120,90)"/>
<path d="M0 0 C0.99 0.33 1.98 0.66 3 1 C2.72987799 7.0777453 2.0169245 11.15606163 -2 16 C-2.99 16.66 -3.98 17.32 -5 18 C-5 16.68 -5 15.36 -5 14 C-4.01 14 -3.02 14 -2 14 C-1.7834375 13.071875 -1.7834375 13.071875 -1.5625 12.125 C-1 10 -1 10 0 8 C0.0689472 6.62657169 0.08467708 5.24997898 0.0625 3.875 C0.041875 2.59625 0.02125 1.3175 0 0 Z " fill="#9FCFD8" transform="translate(358,41)"/>
<path d="M0 0 C1.37562854 1.28965176 2.70766393 2.62689293 4 4 C4 4.66 4 5.32 4 6 C4.66 6 5.32 6 6 6 C7.625 8.5 7.625 8.5 9 11 C8.01 11.33 7.02 11.66 6 12 C5.34 10.68 4.68 9.36 4 8 C2.02 8.99 2.02 8.99 0 10 C0 6.7 0 3.4 0 0 Z " fill="#7CC2D1" transform="translate(418,205)"/>
<path d="M0 0 C0.66 0.33 1.32 0.66 2 1 C1.01 2.485 1.01 2.485 0 4 C-0.66 4 -1.32 4 -2 4 C-3.0448758 8.62730711 -3.51756279 13.28853878 -4 18 C-4.66 18 -5.32 18 -6 18 C-6.3501774 11.34662948 -5.8813565 6.30822413 -1.3125 1.0625 C-0.6628125 0.5365625 -0.6628125 0.5365625 0 0 Z " fill="#97CBD5" transform="translate(333,31)"/>
<path d="M0 0 C0.66 0 1.32 0 2 0 C1.55835412 3.09152119 1.02783037 5.91998769 0 8.875 C-1.19693408 12.61541901 -1.59624972 16.09708063 -2 20 C-2.33 20 -2.66 20 -3 20 C-3.33 16.7 -3.66 13.4 -4 10 C-3.34 10 -2.68 10 -2 10 C-2.33 8.35 -2.66 6.7 -3 5 C-2.01 5 -1.02 5 0 5 C0 3.35 0 1.7 0 0 Z " fill="#8CC9D3" transform="translate(413,150)"/>
<path d="M0 0 C9.24 0 18.48 0 28 0 C28 0.33 28 0.66 28 1 C27.02417969 1.06058594 26.04835938 1.12117188 25.04296875 1.18359375 C23.13451172 1.30927734 23.13451172 1.30927734 21.1875 1.4375 C19.92292969 1.51871094 18.65835938 1.59992188 17.35546875 1.68359375 C14.00818107 1.87184547 14.00818107 1.87184547 11 3 C8.30078125 2.66015625 8.30078125 2.66015625 5.3125 2.0625 C4.31863281 1.86785156 3.32476563 1.67320313 2.30078125 1.47265625 C1.54152344 1.31667969 0.78226563 1.16070312 0 1 C0 0.67 0 0.34 0 0 Z " fill="#7FC6D4" transform="translate(873,90)"/>
<path d="M0 0 C0.33 0.66 0.66 1.32 1 2 C0.34 2 -0.32 2 -1 2 C-1 2.99 -1 3.98 -1 5 C-2.65 5 -4.3 5 -6 5 C-6 5.66 -6 6.32 -6 7 C-6.99 7 -7.98 7 -9 7 C-9.33 7.99 -9.66 8.98 -10 10 C-10.99 9.67 -11.98 9.34 -13 9 C-12.01 8.67 -11.02 8.34 -10 8 C-10 7.34 -10 6.68 -10 6 C-9.34 6 -8.68 6 -8 6 C-8 5.34 -8 4.68 -8 4 C-5.46436342 1.73603877 -3.34249629 0.59687434 0 0 Z " fill="#8BC4D0" transform="translate(694,105)"/>
<path d="M0 0 C0.33 0.99 0.66 1.98 1 3 C0.01 3.33 -0.98 3.66 -2 4 C-1.67 5.32 -1.34 6.64 -1 8 C-1.99 8 -2.98 8 -4 8 C-5.4606285 5.35261084 -6 4.10551666 -6 1 C-4 0 -4 0 0 0 Z " fill="#6DBBCC" transform="translate(334,48)"/>
<path d="M0 0 C0.66 0.33 1.32 0.66 2 1 C2 1.66 2 2.32 2 3 C3.32 3.66 4.64 4.32 6 5 C5.67 5.99 5.34 6.98 5 8 C4.34 8 3.68 8 3 8 C2.67 8.99 2.34 9.98 2 11 C1.01 11 0.02 11 -1 11 C-0.42655063 8.13275314 -0.1385485 7.1385485 2 5 C1.34 3.35 0.68 1.7 0 0 Z " fill="#71BED1" transform="translate(698,212)"/>
<path d="M0 0 C4.75 1.875 4.75 1.875 7 3 C7 3.66 7 4.32 7 5 C7.99 5.33 8.98 5.66 10 6 C10 6.66 10 7.32 10 8 C6.05783322 7.7312159 4.43510186 7.44655191 1.625 4.5625 C0 2 0 2 0 0 Z " fill="#7CC2D1" transform="translate(501,104)"/>
<path d="M0 0 C0.33 0.99 0.66 1.98 1 3 C0.67 3.66 0.34 4.32 0 5 C-0.66 5 -1.32 5 -2 5 C-2.33 7.97 -2.66 10.94 -3 14 C-3.66 14 -4.32 14 -5 14 C-5.29557392 8.97524332 -5.0282379 6.07647409 -2 2 C-1.34 1.34 -0.68 0.68 0 0 Z " fill="#80BFCC" transform="translate(826,2)"/>
<path d="M0 0 C1.98 0.99 1.98 0.99 4 2 C3.67 2.99 3.34 3.98 3 5 C3.99 5.33 4.98 5.66 6 6 C6 9.3 6 12.6 6 16 C5.34 16 4.68 16 4 16 C3.87882813 15.34773437 3.75765625 14.69546875 3.6328125 14.0234375 C2.71056011 9.21353658 1.69832723 4.60974535 0 0 Z " fill="#85C7D1" transform="translate(927,134)"/>
<path d="M0 0 C2.19050021 0.09017996 4.378466 0.24666208 6.5625 0.4375 C7.76003906 0.53933594 8.95757813 0.64117187 10.19140625 0.74609375 C11.11824219 0.82988281 12.04507813 0.91367188 13 1 C13 1.33 13 1.66 13 2 C10.45887768 2.33801152 7.91723254 2.67053379 5.375 3 C4.66214844 3.09539062 3.94929687 3.19078125 3.21484375 3.2890625 C-0.88821609 3.81606101 -4.85245742 4.10466984 -9 4 C-9 3.34 -9 2.68 -9 2 C-6.94921875 1.77213542 -4.8984375 1.54427083 -2.84765625 1.31640625 C-0.98859771 1.18113386 -0.98859771 1.18113386 0 0 Z " fill="#88C6D4" transform="translate(873,115)"/>
<path d="M0 0 C5.31427203 2.70923672 8.42148591 5.22864787 12 10 C11.67 10.66 11.34 11.32 11 12 C7.25013126 10.75004375 6.37836484 9.09908146 4 6 C3.2575 5.278125 2.515 4.55625 1.75 3.8125 C0 2 0 2 0 0 Z " fill="#86C4D2" transform="translate(281,102)"/>
<path d="M0 0 C1.78821774 2.68232661 3.20142604 5.30288961 4.625 8.1875 C5.07101563 9.08855469 5.51703125 9.98960937 5.9765625 10.91796875 C6.31429687 11.60503906 6.65203125 12.29210937 7 13 C5.68 13 4.36 13 3 13 C0.33409063 8.44573816 -0.31563182 5.26053037 0 0 Z " fill="#7EC1CE" transform="translate(28,208)"/>
<path d="M0 0 C0.66 0.99 1.32 1.98 2 3 C0.8553125 4.0209375 0.8553125 4.0209375 -0.3125 5.0625 C-3.32843331 8.35898525 -4.45879017 10.86306835 -6 15 C-6.66 15 -7.32 15 -8 15 C-6.51194289 9.19657726 -3.40902445 4.82409121 0 0 Z " fill="#88C8D3" transform="translate(398,125)"/>
<path d="M0 0 C4.00972202 3.67557852 6.45335415 7.18966896 9 12 C8.34 12 7.68 12 7 12 C7 11.34 7 10.68 7 10 C5.35 9.67 3.7 9.34 2 9 C2.33 7.35 2.66 5.7 3 4 C2.01 4 1.02 4 0 4 C0 2.68 0 1.36 0 0 Z " fill="#7EC1CE" transform="translate(944,107)"/>
<path d="M0 0 C5.26087893 -0.31565274 8.49248551 0.2340252 13 3 C14.875 4.6875 14.875 4.6875 16 6 C15.67 6.66 15.34 7.32 15 8 C13.68 7.34 12.36 6.68 11 6 C11 5.34 11 4.68 11 4 C10.34 4 9.68 4 9 4 C9 3.34 9 2.68 9 2 C7.329375 2.061875 7.329375 2.061875 5.625 2.125 C2 2 2 2 0 0 Z " fill="#8BCAD4" transform="translate(10,90)"/>
<path d="M0 0 C1.16191359 3.48574078 0.49739343 5.27129955 -0.453125 8.7265625 C-1.34601396 12.43842947 -1.66601063 16.20306826 -2 20 C-2.33 20 -2.66 20 -3 20 C-3.08089542 17.22858283 -3.14044062 14.45952181 -3.1875 11.6875 C-3.22520508 10.50897461 -3.22520508 10.50897461 -3.26367188 9.30664062 C-3.27333984 8.54931641 -3.28300781 7.79199219 -3.29296875 7.01171875 C-3.3086792 6.31522217 -3.32438965 5.61872559 -3.34057617 4.90112305 C-2.90238443 2.45510217 -1.86562642 1.57297914 0 0 Z " fill="#96CFD9" transform="translate(688,151)"/>
<path d="M0 0 C0.66 0 1.32 0 2 0 C2 0.66 2 1.32 2 2 C2.66 2.33 3.32 2.66 4 3 C3.21172254 4.29373782 2.41924884 5.58491951 1.625 6.875 C1.18414063 7.59429687 0.74328125 8.31359375 0.2890625 9.0546875 C-1 11 -1 11 -3 13 C-3 10.03 -3 7.06 -3 4 C-1.68 4 -0.36 4 1 4 C0.67 2.68 0.34 1.36 0 0 Z " fill="#8AC6D5" transform="translate(692,137)"/>
<path d="M0 0 C0.66 0.33 1.32 0.66 2 1 C-1.71429658 5.17858365 -5.64185802 8.17846829 -11 10 C-11.66 9.67 -12.32 9.34 -13 9 C-11.39612733 7.8745809 -9.79189084 6.74968028 -8.1875 5.625 C-7.29417969 4.99851562 -6.40085937 4.37203125 -5.48046875 3.7265625 C-3.66732122 2.46449761 -1.83811789 1.22541192 0 0 Z " fill="#8EC9D4" transform="translate(424,102)"/>
<path d="M0 0 C0 0.66 0 1.32 0 2 C-0.66 2 -1.32 2 -2 2 C-2.33 2.99 -2.66 3.98 -3 5 C-3.99 5.495 -3.99 5.495 -5 6 C-5.72159424 7.64363134 -6.39351421 9.31050386 -7 11 C-7.66 11 -8.32 11 -9 11 C-8.49697411 6.59852343 -6.97554199 4.24604581 -4 1 C-2 0 -2 0 0 0 Z " fill="#8BC5D0" transform="translate(119,91)"/>
<path d="M0 0 C0.33 0 0.66 0 1 0 C1 2.97 1 5.94 1 9 C1.66 9 2.32 9 3 9 C3.66 11.97 4.32 14.94 5 18 C1.66766756 14.88265675 0.07266428 13.00844069 -0.09765625 8.30078125 C-0.08605469 7.31464844 -0.07445312 6.32851562 -0.0625 5.3125 C-0.05347656 4.31863281 -0.04445312 3.32476562 -0.03515625 2.30078125 C-0.02355469 1.54152344 -0.01195312 0.78226563 0 0 Z " fill="#78BCC7" transform="translate(165,240)"/>
<path d="M0 0 C0.99 0.33 1.98 0.66 3 1 C3 1.66 3 2.32 3 3 C3.66 3 4.32 3 5 3 C7.60018816 6.90028225 7.15085514 10.47434569 7 15 C6.33333333 13.66666667 5.66666667 12.33333333 5 11 C4.195625 9.4840625 4.195625 9.4840625 3.375 7.9375 C2 5 2 5 2 2 C1.34 2 0.68 2 0 2 C0 1.34 0 0.68 0 0 Z " fill="#91C9D4" transform="translate(790,227)"/>
<path d="M0 0 C0.66 0 1.32 0 2 0 C2 0.66 2 1.32 2 2 C3.65 2 5.3 2 7 2 C3.87511433 4.52394612 0.68685613 6.39701907 -3 8 C-3.66 7.67 -4.32 7.34 -5 7 C-5 6.34 -5 5.68 -5 5 C-3.35 5 -1.7 5 0 5 C0 3.35 0 1.7 0 0 Z " fill="#86C6D3" transform="translate(539,42)"/>
<path d="M0 0 C1.25425781 0.10183594 2.50851562 0.20367188 3.80078125 0.30859375 C5.22970703 0.43427734 5.22970703 0.43427734 6.6875 0.5625 C6.6875 0.8925 6.6875 1.2225 6.6875 1.5625 C3.89630221 1.78364415 1.1053788 1.98993301 -1.6875 2.1875 C-2.4815625 2.25195312 -3.275625 2.31640625 -4.09375 2.3828125 C-6.16278224 2.52308587 -8.23875536 2.55008237 -10.3125 2.5625 C-10.9725 1.9025 -11.6325 1.2425 -12.3125 0.5625 C-8.06698144 -0.53337955 -4.3532161 -0.36615836 0 0 Z " fill="#90CED9" transform="translate(616.3125,23.4375)"/>
<path d="M0 0 C4.21073233 1.50383297 5.83237117 4.20664956 8 8 C8 8.99 8 9.98 8 11 C7.34 11 6.68 11 6 11 C5.71125 10.360625 5.4225 9.72125 5.125 9.0625 C4.17176549 6.84793921 4.17176549 6.84793921 2 6 C1.27306096 4.02111039 0.60183749 2.02045442 0 0 Z " fill="#8DC9D6" transform="translate(841,1)"/>
<path d="M0 0 C-0.49230769 6.52307692 -0.49230769 6.52307692 -3.0625 8.9375 C-3.701875 9.288125 -4.34125 9.63875 -5 10 C-5.19990835 6.40164967 -4.96808719 4.06146896 -3 1 C-1 0 -1 0 0 0 Z " fill="#81C2D3" transform="translate(959,248)"/>
<path d="M0 0 C4.92127034 -0.16682272 8.50343896 -0.24828052 13 2 C13 2.66 13 3.32 13 4 C10.69 4 8.38 4 6 4 C6 3.34 6 2.68 6 2 C3.03 1.505 3.03 1.505 0 1 C0 0.67 0 0.34 0 0 Z " fill="#82C2D0" transform="translate(775,96)"/>
<path d="M0 0 C1.98 1.65 3.96 3.3 6 5 C5.01 5.66 4.02 6.32 3 7 C3.99 8.485 3.99 8.485 5 10 C2.525 9.01 2.525 9.01 0 8 C0 5.33333333 0 2.66666667 0 0 Z " fill="#A0D0DD" transform="translate(754,48)"/>
<path d="M0 0 C0.66 0.33 1.32 0.66 2 1 C2 4 2 4 1 6 C-1.0625 6.625 -1.0625 6.625 -3 7 C-3.33 6.34 -3.66 5.68 -4 5 C-4.66 4.67 -5.32 4.34 -6 4 C-4.02 2.68 -2.04 1.36 0 0 Z " fill="#72BED1" transform="translate(553,24)"/>
<path d="M0 0 C0.89332031 0.12761719 1.78664063 0.25523437 2.70703125 0.38671875 C3.60808594 0.50660156 4.50914063 0.62648438 5.4375 0.75 C6.12457031 0.85699219 6.81164062 0.96398437 7.51953125 1.07421875 C7.18953125 1.73421875 6.85953125 2.39421875 6.51953125 3.07421875 C2.55953125 3.07421875 -1.40046875 3.07421875 -5.48046875 3.07421875 C-2.48046875 0.07421875 -2.48046875 0.07421875 0 0 Z " fill="#82C1CD" transform="translate(96.48046875,255.92578125)"/>
<path d="M0 0 C0.66 0.33 1.32 0.66 2 1 C0.41310267 4.17379466 -2.75431117 5.78370667 -6 7 C-8.23046875 6.61328125 -8.23046875 6.61328125 -10 6 C-8.3811004 4.96951963 -6.75467511 3.95085322 -5.125 2.9375 C-4.22007812 2.36902344 -3.31515625 1.80054687 -2.3828125 1.21484375 C-1.20332031 0.61349609 -1.20332031 0.61349609 0 0 Z " fill="#96CBD4" transform="translate(705,97)"/>
<path d="M0 0 C0 0.99 0 1.98 0 3 C0.66 3.33 1.32 3.66 2 4 C1.67 5.65 1.34 7.3 1 9 C-0.32 8.67 -1.64 8.34 -3 8 C-2.25 2.25 -2.25 2.25 0 0 Z " fill="#77C0CF" transform="translate(572,93)"/>
<path d="M0 0 C1.8871875 0.0309375 1.8871875 0.0309375 3.8125 0.0625 C3.4825 0.7225 3.1525 1.3825 2.8125 2.0625 C2.02875 2.02125 1.245 1.98 0.4375 1.9375 C-2.34866119 1.77521266 -2.34866119 1.77521266 -4.1875 4.0625 C-6.8125 3.6875 -6.8125 3.6875 -9.1875 3.0625 C-6.30623588 0.18123588 -3.90053134 -0.06394314 0 0 Z " fill="#78BDCF" transform="translate(582.1875,89.9375)"/>
<path d="M0 0 C4.03520597 1.58962659 8.01811282 3.28232318 12 5 C8.93309225 6.02230258 7.18373032 6.46591175 4 6 C0 1.78378378 0 1.78378378 0 0 Z " fill="#8ECAD6" transform="translate(704,13)"/>
<path d="M0 0 C2.64 0.33 5.28 0.66 8 1 C8 1.66 8 2.32 8 3 C9.32 3.33 10.64 3.66 12 4 C12 4.66 12 5.32 12 6 C7.24518354 5.42365861 4.02951788 3.44931479 0 1 C0 0.67 0 0.34 0 0 Z " fill="#8BC8D4" transform="translate(23,249)"/>
<path d="M0 0 C-3.65333143 2.63379708 -6.48521602 4.46884894 -11 5 C-11 4.34 -11 3.68 -11 3 C-9.68 3 -8.36 3 -7 3 C-7.33 2.01 -7.66 1.02 -8 0 C-4.71303767 -0.79953138 -3.28976808 -1.09658936 0 0 Z " fill="#86C6D2" transform="translate(792,249)"/>
<path d="M0 0 C1.32 0 2.64 0 4 0 C4 1.98 4 3.96 4 6 C3.01 6.33 2.02 6.66 1 7 C0.01 5.68 -0.98 4.36 -2 3 C-1.34 2.01 -0.68 1.02 0 0 Z " fill="#53B3C1" transform="translate(746,44)"/>
<path d="M0 0 C0.99 0.33 1.98 0.66 3 1 C1.54744301 4.82946843 -0.42895561 6.12050295 -4 8 C-4.33 7.34 -4.66 6.68 -5 6 C-3.6875 4.5 -3.6875 4.5 -2 3 C-1.01 3 -0.02 3 1 3 C0.67 2.01 0.34 1.02 0 0 Z " fill="#98CDD8" transform="translate(537,252)"/>
<path d="M0 0 C1.875 0.3125 1.875 0.3125 4 1 C6 4 6 4 5.625 6.6875 C5.41875 7.450625 5.2125 8.21375 5 9 C4.67 9 4.34 9 4 9 C4 7.35 4 5.7 4 4 C2.68 3.67 1.36 3.34 0 3 C0 2.01 0 1.02 0 0 Z " fill="#85C1CF" transform="translate(351,93)"/>
<path d="M0 0 C1.21236328 0.01353516 1.21236328 0.01353516 2.44921875 0.02734375 C3.37154297 0.04474609 3.37154297 0.04474609 4.3125 0.0625 C4.3125 0.3925 4.3125 0.7225 4.3125 1.0625 C3.73242188 1.18367188 3.15234375 1.30484375 2.5546875 1.4296875 C-1.96778442 2.39985474 -6.32500966 3.49647783 -10.6875 5.0625 C-7.65508091 0.58607181 -5.29115239 -0.07668337 0 0 Z " fill="#91C7D1" transform="translate(527.6875,89.9375)"/>
<path d="M0 0 C-1.8125 1.5625 -1.8125 1.5625 -4 3 C-4.99 2.67 -5.98 2.34 -7 2 C-7 2.66 -7 3.32 -7 4 C-8.32 3.67 -9.64 3.34 -11 3 C-9.08400609 0.55178556 -8.02756971 0.00675177 -4.9375 -0.75 C-2 -1 -2 -1 0 0 Z " fill="#64B6CD" transform="translate(539,41)"/>
<path d="M0 0 C0.33 0 0.66 0 1 0 C1.63019694 8.03501094 1.63019694 8.03501094 -1 12.0625 C-1.66 12.701875 -2.32 13.34125 -3 14 C-3.33 12.68 -3.66 11.36 -4 10 C-3.01 10 -2.02 10 -1 10 C-0.67 6.7 -0.34 3.4 0 0 Z " fill="#88BFCB" transform="translate(848,243)"/>
<path d="M0 0 C3.30745448 4.4099393 3.49004554 5.70750819 3 11 C2.34 11.66 1.68 12.32 1 13 C0.67 8.71 0.34 4.42 0 0 Z " fill="#8FC8D5" transform="translate(794,104)"/>
<path d="M0 0 C1.60517097 0.08733576 3.20921662 0.19552224 4.8125 0.3125 C6.15248047 0.39951172 6.15248047 0.39951172 7.51953125 0.48828125 C10.30604 1.06313581 11.24135754 1.8206856 13 4 C9.23375329 5.25541557 7.62811066 4.37061958 4 3 C4 2.34 4 1.68 4 1 C2.68 0.67 1.36 0.34 0 0 Z " fill="#95D1D9" transform="translate(341,28)"/>
<path d="M0 0 C0.2475 0.61875 0.495 1.2375 0.75 1.875 C2.20628639 4.35068687 3.37812506 4.95125002 6 6 C6 6.99 6 7.98 6 9 C2.2047869 7.50902342 0.38957269 5.24299151 -2 2 C-1.34 2 -0.68 2 0 2 C0 1.34 0 0.68 0 0 Z " fill="#7ABDCC" transform="translate(14,238)"/>
<path d="M0 0 C0.33 0 0.66 0 1 0 C0.53199289 4.05606165 0.12046792 7.46588679 -2 11 C-2.66 11 -3.32 11 -4 11 C-3.52269162 9.5410574 -3.04308958 8.08286504 -2.5625 6.625 C-2.29566406 5.81289062 -2.02882813 5.00078125 -1.75390625 4.1640625 C-1 2 -1 2 0 0 Z " fill="#8FC5D4" transform="translate(667,133)"/>
<path d="M0 0 C0 0.33 0 0.66 0 1 C-4.32059823 2.09845718 -8.61667943 3.17812739 -13 4 C-13 3.01 -13 2.02 -13 1 C-8.59085217 -0.10228696 -4.51617599 -0.07654536 0 0 Z " fill="#96CDD7" transform="translate(728,118)"/>
<path d="M0 0 C0.66 1.32 1.32 2.64 2 4 C3.65 3.67 5.3 3.34 7 3 C6.67 4.32 6.34 5.64 6 7 C4.35 6.67 2.7 6.34 1 6 C0.67 4.02 0.34 2.04 0 0 Z " fill="#89C7D2" transform="translate(593,95)"/>
<path d="M0 0 C1.32 0 2.64 0 4 0 C4 0.66 4 1.32 4 2 C3.01 2 2.02 2 1 2 C1.33 3.32 1.66 4.64 2 6 C0.68 6.33 -0.64 6.66 -2 7 C-1.42415568 4.61435923 -0.77772405 2.33317216 0 0 Z " fill="#61B2C1" transform="translate(843,251)"/>
<path d="M0 0 C0 1.32 0 2.64 0 4 C0.66 4.33 1.32 4.66 2 5 C0.68 5 -0.64 5 -2 5 C-3.75 3 -3.75 3 -5 1 C-2 0 -2 0 0 0 Z " fill="#88C6D0" transform="translate(413,235)"/>
<path d="M0 0 C1.1577506 3.47325181 1.06866652 6.36067448 1 10 C0.34 9.67 -0.32 9.34 -1 9 C-1.59355614 6.35139573 -1.74209269 3.70802678 -2 1 C-1.34 0.67 -0.68 0.34 0 0 Z " fill="#7DC1D0" transform="translate(6,223)"/>
<path d="M0 0 C1.32 0 2.64 0 4 0 C2.75023244 3.65316671 2.32901247 4.78065836 -1 7 C-1.33 6.01 -1.66 5.02 -2 4 C-1.34 3.67 -0.68 3.34 0 3 C0 2.01 0 1.02 0 0 Z " fill="#80BFCF" transform="translate(420,137)"/>
<path d="M0 0 C2.97 0.495 2.97 0.495 6 1 C3.44008376 3.01136276 0.95409701 4.62845496 -2 6 C-2 5.01 -2 4.02 -2 3 C-1.34 3 -0.68 3 0 3 C0 2.01 0 1.02 0 0 Z " fill="#8BC7D3" transform="translate(434,125)"/>
<path d="M0 0 C1.73662334 3.22515763 2.8905928 6.51329166 4 10 C3.01 10 2.02 10 1 10 C-0.1577506 6.52674819 -0.06866652 3.63932552 0 0 Z " fill="#94CDD5" transform="translate(412,191)"/>
<path d="M0 0 C2.97 0 5.94 0 9 0 C8 2 8 2 6.15234375 2.6328125 C5.42144531 2.79523438 4.69054687 2.95765625 3.9375 3.125 C2.83728516 3.37636719 2.83728516 3.37636719 1.71484375 3.6328125 C1.14894531 3.75398437 0.58304687 3.87515625 0 4 C0 2.68 0 1.36 0 0 Z " fill="#90CBD7" transform="translate(483,251)"/>
<path d="M0 0 C3.465 1.485 3.465 1.485 7 3 C5.1875 4.0625 5.1875 4.0625 3 5 C2.01 4.67 1.02 4.34 0 4 C0 2.68 0 1.36 0 0 Z " fill="#88C8D2" transform="translate(710,223)"/>
<path d="M0 0 C1.32 0.33 2.64 0.66 4 1 C3.67 1.99 3.34 2.98 3 4 C3.66 4 4.32 4 5 4 C4.34 5.32 3.68 6.64 3 8 C0 2.25 0 2.25 0 0 Z " fill="#7BC4CD" transform="translate(664,209)"/>
<path d="M0 0 C2.50298434 2.93828597 3.46930939 5.17902761 4 9 C2.68 8.34 1.36 7.68 0 7 C0 4.69 0 2.38 0 0 Z " fill="#90CCD9" transform="translate(953,119)"/>
<path d="M0 0 C0.66 0 1.32 0 2 0 C2 0.66 2 1.32 2 2 C2.66 2 3.32 2 4 2 C4.66 3.65 5.32 5.3 6 7 C3.5625 6.3125 3.5625 6.3125 1 5 C0.1875 2.375 0.1875 2.375 0 0 Z " fill="#93CCD6" transform="translate(651,92)"/>
<path d="M0 0 C1.36511719 0.29197266 1.36511719 0.29197266 2.7578125 0.58984375 C3.45648437 0.74582031 4.15515625 0.90179688 4.875 1.0625 C4.875 1.3925 4.875 1.7225 4.875 2.0625 C-3.69642857 2.34821429 -3.69642857 2.34821429 -7.125 0.0625 C-4.4030754 -1.2984623 -2.9418043 -0.64116248 0 0 Z " fill="#97CEDB" transform="translate(727.125,256.9375)"/>
<path d="M0 0 C0.99 0.99 1.98 1.98 3 3 C2.34 3 1.68 3 1 3 C1.33 4.32 1.66 5.64 2 7 C0.68 6.34 -0.64 5.68 -2 5 C-1.34 3.35 -0.68 1.7 0 0 Z " fill="#64B9CF" transform="translate(427,216)"/>
<path d="M0 0 C0.66 1.32 1.32 2.64 2 4 C1.34 4.66 0.68 5.32 0 6 C-0.99 5.34 -1.98 4.68 -3 4 C-2.67 3.01 -2.34 2.02 -2 1 C-1.34 0.67 -0.68 0.34 0 0 Z " fill="#74BBD0" transform="translate(539,96)"/>
<path d="M0 0 C0.33 1.32 0.66 2.64 1 4 C-0.65 5.32 -2.3 6.64 -4 8 C-4 6.68 -4 5.36 -4 4 C-3.01 4 -2.02 4 -1 4 C-0.67 2.68 -0.34 1.36 0 0 Z " fill="#8CC7D0" transform="translate(357,51)"/>
<path d="M0 0 C2.31 0.33 4.62 0.66 7 1 C7.33 1.99 7.66 2.98 8 4 C5.64828869 3.40138258 3.3140622 2.73075648 1 2 C0.67 1.34 0.34 0.68 0 0 Z " fill="#8DCCD4" transform="translate(739,47)"/>
<path d="M0 0 C0 0.66 0 1.32 0 2 C-1.62626404 3.38232443 -3.2925002 4.71937515 -5 6 C-5.33 5.01 -5.66 4.02 -6 3 C-3.375 0 -3.375 0 0 0 Z " fill="#7BBBCC" transform="translate(340,29)"/>
</svg>
